<?xml version="1.0" encoding="UTF-8" standalone="no"?>
<svg width="11px" height="20px" viewBox="0 0 11 20" version="1.1" xmlns="http://www.w3.org/2000/svg" xmlns:xlink="http://www.w3.org/1999/xlink" xmlns:sketch="http://www.bohemiancoding.com/sketch/ns">
    <!-- Generator: Sketch Beta 3.4 (15009) - http://www.bohemiancoding.com/sketch -->
    <title>Shape 7</title>
    <desc>Created with Sketch Beta.</desc>
    <defs></defs>
    <g id="Travel-Blogs" stroke="none" stroke-width="1" fill="none" fill-rule="evenodd" sketch:type="MSPage">
        <g id="desktop-collapsed-list" sketch:type="MSArtboardGroup" transform="translate(-185.000000, -786.000000)" fill="#FFFFFF">
            <g id="Social-buttons" sketch:type="MSLayerGroup" transform="translate(170.000000, 777.000000)">
                <g id="Rectangle-197-+-facebook_icon" sketch:type="MSShapeGroup">
                    <g id="facebook_icon" transform="translate(15.000000, 9.000000)">
                        <path d="M3.0108642,7.00568569 L3.0108642,6.02047669 L3.0108642,5.05530444 L3.0108642,4.8943454 C3.0108642,3.96533904 3.03465575,2.52976066 3.70131148,1.6410772 C4.40373658,0.699932404 5.36803284,0.0606689453 7.02671429,0.0606689453 C9.72902454,0.0606689453 10.8680657,0.450678685 10.8680657,0.450678685 L10.3322635,3.66794726 C10.3322635,3.66794726 9.43950595,3.40647196 8.60614527,3.40647196 C7.77286663,3.40647196 7.02671429,3.70802074 7.02671429,4.55264 L7.02671429,4.89442854 L7.02671429,6.02047669 L7.02671429,7.00568569 L10.214952,7.00568569 L9.9501764,10.0205078 L7.0001003,10.0205078 L7.00561499,14.8937221 L7.02671429,19.0606689 L3.0108642,19.0606689 L2.9842502,10.0205078 L0.947854205,10.0205079 L0.974468201,7.00568581 L3.0108642,7.00568569 Z" id="Shape-7"></path>
                    </g>
                </g>
            </g>
        </g>
    </g>
</svg>