<?xml version="1.0" encoding="UTF-8" standalone="no"?>
<svg width="21px" height="18px" viewBox="0 0 21 18" version="1.1" xmlns="http://www.w3.org/2000/svg" xmlns:xlink="http://www.w3.org/1999/xlink" xmlns:sketch="http://www.bohemiancoding.com/sketch/ns">
    <!-- Generator: Sketch Beta 3.4 (15009) - http://www.bohemiancoding.com/sketch -->
    <title>google+_icon</title>
    <desc>Created with Sketch Beta.</desc>
    <defs></defs>
    <g id="Travel-Blogs" stroke="none" stroke-width="1" fill="none" fill-rule="evenodd" sketch:type="MSPage">
        <g id="desktop-collapsed-list" sketch:type="MSArtboardGroup" transform="translate(-370.000000, -787.000000)" fill="#FFFFFF">
            <g id="Social-buttons" sketch:type="MSLayerGroup" transform="translate(170.000000, 777.000000)">
                <g id="Rectangle-197-+-pinterest_icon" transform="translate(192.000000, 0.000000)" sketch:type="MSShapeGroup">
                    <g id="google+_icon" transform="translate(8.000000, 10.000000)">
                        <g id="Group">
                            <path d="M20.970283,2.96291896 L17.9835565,2.96291896 L17.9835565,0.00398141264 L16.9868007,0.00398141264 L16.9868007,2.96291896 L14,2.96291896 L14,3.95263494 L16.9868007,3.95263494 L16.9868007,6.91157249 L17.9835565,6.91157249 L17.9835565,3.95263494 L20.970283,3.95263494 L20.970283,2.96291896 Z" id="Shape"></path>
                            <path d="M10.2217021,10.3628524 C9.71440951,10.0062997 8.74432731,9.13902576 8.74432731,8.62931035 C8.74432731,8.03194883 8.91605854,7.73755985 9.82158114,7.03504983 C10.7497942,6.31483624 11.4066678,5.30251368 11.4066678,4.12468951 C11.4066678,2.72282125 10.7778195,1.35629308 9.59751343,0.905589582 L11.3770217,0.905589582 L12.6330975,0.00398141264 L7.02066716,0.00398141264 C4.50453123,0.00398141264 2.13649068,1.89692268 2.13649068,4.08961766 C2.13649068,6.33025981 3.8515744,8.13870675 6.4114704,8.13870675 C6.58941447,8.13870675 6.76242878,8.13515263 6.93179642,8.12314907 C6.76560274,8.43892987 6.64688332,8.79474489 6.64688332,9.16397171 C6.64688332,9.78668152 6.98420045,10.2916357 7.4107935,10.7036462 C7.08853578,10.7036462 6.77728559,10.7129003 6.437875,10.7129003 C3.32132133,10.7129003 0.922486667,12.6839653 0.922486667,14.7279235 C0.922486667,16.7407662 3.55220967,18 6.66883088,18 C10.2218371,18 12.1842867,15.9980879 12.1842867,13.9849769 C12.1841517,12.3708669 11.7044793,11.4042115 10.2217021,10.3628524 L10.2217021,10.3628524 L10.2217021,10.3628524 Z M7.22353016,7.57065002 L7.22353016,7.57065002 C5.77742224,7.52773226 4.40323479,5.96425182 4.15370791,4.07895528 C3.90411349,2.19332344 4.87365544,0.750079776 6.31935817,0.792997532 C7.76492584,0.836250582 9.13958601,2.34910148 9.38931549,4.23453214 C9.63863978,6.12002987 8.66889524,7.61350071 7.22353016,7.57065002 L7.22353016,7.57065002 L7.22353016,7.57065002 Z M6.65728308,17.109993 L6.65728308,17.109993 C4.50311308,17.109993 2.94733489,15.7559378 2.94733489,14.1292878 C2.94733489,12.5350944 4.87696446,11.2080639 7.03120199,11.2311993 C7.53390244,11.2364299 8.00243222,11.3167666 8.42774219,11.4534328 C9.59710824,12.2609572 10.4359778,12.7172937 10.6725387,13.6375442 C10.7171092,13.8242365 10.7412852,14.0161593 10.7412852,14.2122398 C10.7412177,15.8389569 9.68584392,17.109993 6.65728308,17.109993 L6.65728308,17.109993 Z" id="Shape"></path>
                        </g>
                    </g>
                </g>
            </g>
        </g>
    </g>
</svg>