<?xml version="1.0" encoding="utf-8"?>
<!-- Generator: Adobe Illustrator 18.0.0, SVG Export Plug-In . SVG Version: 6.00 Build 0)  -->
<!DOCTYPE svg PUBLIC "-//W3C//DTD SVG 1.0//EN" "http://www.w3.org/TR/2001/REC-SVG-20010904/DTD/svg10.dtd">
<svg version="1.0" id="Calque_1" xmlns="http://www.w3.org/2000/svg" xmlns:xlink="http://www.w3.org/1999/xlink" x="0px" y="0px"
	 viewBox="30 30 40 40" enable-background="new 30 30 40 40" xml:space="preserve">
<g>
	<path d="M40,44.5c1.9-3.6,5.6-6,9.9-6s8,2.4,9.9,6h7.7v-6c0-3.3-2.7-6-6-6H41.8v7.7H41v-7.7h-0.3v7.7h-0.8v-7.7h-0.3v7.7h-0.8v-7.7
		h-0.3v7.7h-0.8v-7.6c-2.9,0.4-5.2,2.9-5.2,6v6H40z M58.5,36.3c0-0.7,0.6-1.3,1.3-1.3h2.9c0.7,0,1.3,0.6,1.3,1.3v2.9
		c0,0.7-0.6,1.3-1.3,1.3h-2.9c-0.7,0-1.3-0.6-1.3-1.3V36.3z"/>
	<path d="M60.5,46.2c0.4,1.1,0.6,2.3,0.6,3.6c0,6.2-5,11.2-11.2,11.2s-11.2-5-11.2-11.2c0-1.2,0.2-2.4,0.6-3.6h-6.8v15.3
		c0,3.3,2.7,6,6,6h23c3.3,0,6-2.7,6-6V46.2H60.5z"/>
	<circle cx="49.9" cy="49.7" r="7.5"/>
</g>
</svg>
