<?xml version="1.0" encoding="utf-8"?>
<!-- Generator: Adobe Illustrator 18.0.0, SVG Export Plug-In . SVG Version: 6.00 Build 0)  -->
<!DOCTYPE svg PUBLIC "-//W3C//DTD SVG 1.0//EN" "http://www.w3.org/TR/2001/REC-SVG-20010904/DTD/svg10.dtd">
<svg version="1.0" id="Layer_1" xmlns:sketch="http://www.bohemiancoding.com/sketch/ns"
	 xmlns="http://www.w3.org/2000/svg" xmlns:xlink="http://www.w3.org/1999/xlink" x="0px" y="0px" viewBox="0 0 40 40"
	 enable-background="new 0 0 40 40" xml:space="preserve">
<title>Rectangle 350</title>
<desc>Created with Sketch Beta.</desc>
<g>
	<g>
		<path fill="#231F20" d="M34.9,2.5H5.1C3.7,2.5,2.5,3.6,2.5,5v30c0,1.4,1.2,2.5,2.6,2.5h29.8c1.4,0,2.6-1.1,2.6-2.5V5
			C37.5,3.6,36.3,2.5,34.9,2.5z M12.9,32.3H7.7V15.6h5.2V32.3z M10.3,13.3c-1.7,0-3-1.3-3-3c0-1.7,1.3-3,3-3c1.7,0,3,1.3,3,3
			C13.3,12,11.9,13.3,10.3,13.3z M32.3,32.3h-5.2v-8.1c0-1.9,0-4.4-2.7-4.4c-2.7,0-3.1,2.1-3.1,4.3v8.3h-5.2V15.6h5v2.3h0.1
			c0.7-1.3,2.4-2.7,4.9-2.7c5.3,0,6.2,3.5,6.2,8V32.3z"/>
	</g>
</g>
</svg>
