<?xml version="1.0" encoding="UTF-8" standalone="no"?>
<svg width="17px" height="21px" viewBox="0 0 17 21" version="1.1" xmlns="http://www.w3.org/2000/svg" xmlns:xlink="http://www.w3.org/1999/xlink" xmlns:sketch="http://www.bohemiancoding.com/sketch/ns">
    <!-- Generator: Sketch Beta 3.4 (15009) - http://www.bohemiancoding.com/sketch -->
    <title>Fill 2</title>
    <desc>Created with Sketch Beta.</desc>
    <defs></defs>
    <g id="Travel-Blogs" stroke="none" stroke-width="1" fill="none" fill-rule="evenodd" sketch:type="MSPage">
        <g id="desktop-collapsed-list" sketch:type="MSArtboardGroup" transform="translate(-470.000000, -784.000000)" fill="#FFFFFF">
            <g id="Social-buttons" sketch:type="MSLayerGroup" transform="translate(170.000000, 777.000000)">
                <g id="Rectangle-197-+-pinterest_icon" transform="translate(288.000000, 0.000000)" sketch:type="MSShapeGroup">
                    <g id="pinterest_icon" transform="translate(12.000000, 7.000000)">
                        <path d="M3.71617813,20.6494233 C3.60325815,19.6272115 3.50124882,18.059255 3.7610919,16.9430844 C3.99572394,15.9349611 5.27608401,10.5209458 5.27608401,10.5209458 C5.27608401,10.5209458 4.88955022,9.74713669 4.88955022,8.60289499 C4.88955022,6.80645035 5.93093517,5.46518129 7.22739639,5.46518129 C8.32969034,5.46518129 8.86208793,6.29290807 8.86208793,7.2851421 C8.86208793,8.39368583 8.156391,10.0510461 7.79210224,11.5868002 C7.48776911,12.8730923 8.4369961,13.9218923 9.70528029,13.9218923 C12.0018143,13.9218923 13.766904,11.5002565 13.766904,8.00524533 C13.766904,4.91180982 11.5442023,2.74885191 8.37004917,2.74885191 C4.69389993,2.74885191 2.53613253,5.50628162 2.53613253,8.35576336 C2.53613253,9.46621381 2.96397851,10.6569582 3.49764725,11.3042884 C3.60315222,11.4322503 3.61861781,11.5443228 3.58715699,11.6747211 C3.48917295,12.0830761 3.27117171,12.9606953 3.22848245,13.1401385 C3.17212838,13.3766773 3.0410946,13.4267816 2.79639932,13.3129082 C1.18257574,12.561662 0.173816836,10.2024182 0.173816836,8.30756581 C0.173816836,4.23195949 3.13505334,0.489075182 8.71050397,0.489075182 C13.1923468,0.489075182 16.675494,3.68271923 16.675494,7.95100984 C16.675494,12.4039341 13.86796,15.9873958 9.97126723,15.9873958 C8.6618827,15.9873958 7.43120319,15.3072277 7.0099248,14.5037586 C7.0099248,14.5037586 6.36206493,16.9707318 6.20507862,17.575055 C5.91324508,18.6972635 5.12587713,20.1039965 4.59909376,20.9621248 C5.80805789,21.3364768 -1.09001836,18.7668587 3.71617813,20.6494233 Z" id="Fill-2"></path>
                    </g>
                </g>
            </g>
        </g>
    </g>
</svg>