<?xml version="1.0" encoding="UTF-8" standalone="no"?>
<svg width="19px" height="15px" viewBox="0 0 19 15" version="1.1" xmlns="http://www.w3.org/2000/svg" xmlns:xlink="http://www.w3.org/1999/xlink" xmlns:sketch="http://www.bohemiancoding.com/sketch/ns">
    <!-- Generator: Sketch Beta 3.4 (15009) - http://www.bohemiancoding.com/sketch -->
    <title>Shape 6</title>
    <desc>Created with Sketch Beta.</desc>
    <defs></defs>
    <g id="Travel-Blogs" stroke="none" stroke-width="1" fill="none" fill-rule="evenodd" sketch:type="MSPage">
        <g id="desktop-collapsed-list" sketch:type="MSArtboardGroup" transform="translate(-277.000000, -788.000000)" fill="#FFFFFF">
            <g id="Social-buttons" sketch:type="MSLayerGroup" transform="translate(170.000000, 777.000000)">
                <g id="Rectangle-197-+-twitter_icon" transform="translate(96.000000, 0.000000)" sketch:type="MSShapeGroup">
                    <g id="twitter_icon" transform="translate(11.000000, 11.000000)">
                        <path d="M16.1844613,2.37194601 C16.9468464,1.90333525 17.5324347,1.16118836 17.8080855,0.276877878 C17.0945165,0.710887606 16.3042268,1.02598674 15.4630165,1.1957894 C14.7894372,0.459838668 13.8296155,-1.42663659e-14 12.7674772,-1.42663659e-14 C10.7280683,-1.42663659e-14 9.07457062,1.69545058 9.07457062,3.78668963 C9.07457062,4.08347876 9.10715988,4.3725401 9.17016579,4.64969646 C6.10100413,4.49172917 3.37986864,2.98418239 1.55853625,0.693064941 C1.24058726,1.25239028 1.05849476,1.90284791 1.05849476,2.59681791 C1.05849476,3.91061284 1.71048369,5.06971261 2.70133304,5.74871435 C2.0959875,5.72901196 1.52655804,5.55872197 1.02868916,5.27509097 C1.02834969,5.29089466 1.02834969,5.30676797 1.02834969,5.3227109 C1.02834969,7.15747067 2.30129985,8.68778312 3.99064573,9.03588204 C3.68084405,9.12234981 3.35454407,9.16871658 3.01772046,9.16871658 C2.77975095,9.16871658 2.54843509,9.14490662 2.32295813,9.10076767 C2.79299034,10.6051119 4.15671517,11.6999527 5.77273521,11.7304461 C4.50888289,12.7461291 2.91662586,13.3516124 1.18633972,13.3516124 C0.888215865,13.3516124 0.594301457,13.3335809 0.305343333,13.2986317 C1.93962693,14.3730739 3.88079276,15 5.96630185,15 C12.7589225,15 16.4734194,9.22984275 16.4734194,4.2257816 C16.4734194,4.06161815 16.469821,3.89829014 16.4626921,3.73586718 C17.1843406,3.20202269 17.810326,2.53513478 18.3053433,1.77572219 C17.6431024,2.07689737 16.9314344,2.28046562 16.1844613,2.37194601 Z" id="Shape-6"></path>
                    </g>
                </g>
            </g>
        </g>
    </g>
</svg>