<svg width="71" height="70" viewBox="0 0 71 70" xmlns="http://www.w3.org/2000/svg"><title>Slice 1</title><path d="M12.614 33.123s8.314 6.35 19.023 5.575c0 0 1.55.14-.986-7.27l2.327 1.836s1.48-2.894 3.593-1.906l.07-2.68s3.1 4.092 4.508 4.162c0 0 6.623-7.057 5.707-19.406 0 0 9.16 2.117 16.91-5.434 0 0-7.47 7.48-5.003 14.043 0 0-9.3 2.682-6.2 14.68 0 0-12.47 4.586-8.455 13.266 0 0-9.652-7.624-16.063 1.41 0 0-5.99-9.034-14.655-1.977 0 0-3.17-5.01-11.627-2.823 0 0 6.764-3.88 10.85-13.477z" stroke="#FFF" stroke-width="2" stroke-linejoin="round" fill="none"/></svg>