<svg width="75" height="75" viewBox="0 0 75 75" xmlns="http://www.w3.org/2000/svg"><title>Slice 1</title><g fill="none" fill-rule="evenodd"><path d="M0 0h75v75H0z"/><g transform="translate(9 13)"><path d="M24.676 44.212l-9.274-9.1-6.708-12.23-3.24-5.72L2.4 11.62l4.163-5.122 9.958 1.218 28.475.012 7.295-.5 3.555 6.414-8.687 7.13L39.96 37.7l-5.043 5.827-8.84 1.74-1.4-1.055z" fill="#FFF"/><ellipse fill="#795929" cx="26.046" cy="30.48" rx="1.583" ry="2.24"/><ellipse fill="#795929" cx="30.954" cy="30.48" rx="1.583" ry="2.24"/><path d="M22.8 38.64c.158 1.44 2.692 2.56 5.7 2.56s5.462-1.12 5.7-2.56c-1.267.64-3.325 1.12-5.7 1.12s-4.433-.48-5.7-1.12z" fill="#795929"/><path d="M56.604 13.04c0-4.48-3.642-8.16-8.075-8.16-1.822 0-3.484.64-4.83 1.6C39.742 2.64 34.437.32 28.5.32c-5.938 0-11.242 2.32-15.2 6.16-1.346-1.04-3.008-1.6-4.83-1.6-4.433 0-8.074 3.68-8.074 8.16 0 3.84 2.612 7.12 6.175 7.92 0 .48-.078 1.04-.078 1.52 0 8.64 4.908 16.16 12.033 19.76 1.504 3.12 5.383 5.36 9.896 5.36 4.513 0 8.392-2.24 9.897-5.36 7.125-3.68 12.033-11.12 12.033-19.76 0-.56 0-1.04-.08-1.52 3.722-.88 6.334-4.08 6.334-7.92zm-49.48 4.32c-1.82-.56-3.166-2.32-3.166-4.32 0-2.48 1.98-4.56 4.513-4.56.872 0 1.742.24 2.455.72-1.742 2.4-3.088 5.2-3.8 8.16zm38.16 6.8c-.634 2.72-2.455 5.12-4.672 6.64-.633.4-1.266.8-1.82 1.28-2.296 2.24-1.505 6.32-3.325 9.04-1.267 1.92-3.642 2.64-5.86 2.88H28.42c-.316 0-.633 0-1.028-.08-2.217-.24-4.592-.96-5.86-2.88-1.82-2.64-1.028-6.8-3.324-9.04-.554-.48-1.187-.88-1.82-1.28-2.296-1.52-4.038-3.92-4.67-6.64-.635-2.72-.08-5.76 1.66-7.92 1.268-1.6 3.168-2.64 5.147-3.12 2.217-.56 4.67-.56 6.888.08 1.187.32 2.375.88 3.087 1.92.712-1.04 1.9-1.6 3.087-1.92 2.217-.64 4.67-.64 6.888-.08 1.98.48 3.8 1.52 5.146 3.12 1.742 2.24 2.297 5.28 1.663 8zm4.59-6.8c-.712-2.96-1.978-5.76-3.8-8.16.714-.48 1.584-.72 2.455-.72 2.453 0 4.512 2 4.512 4.56 0 2-1.346 3.76-3.167 4.32z" fill="#795929"/><path d="M37.604 18.08c-2.137 0-3.8 1.76-3.8 3.84 0 2.16 1.742 3.84 3.8 3.84 2.138 0 3.8-1.76 3.8-3.84 0-2.16-1.662-3.84-3.8-3.84zm-.79 4.32c-.556 0-.952-.48-.952-.96 0-.56.475-.96.95-.96.555 0 .95.48.95.96.08.56-.395.96-.95.96zm2.136 1.12c-.317 0-.633-.32-.633-.64s.316-.64.633-.64.633.32.633.64-.237.64-.633.64zM19.396 18.08c-2.138 0-3.8 1.76-3.8 3.84 0 2.16 1.74 3.84 3.8 3.84 2.137 0 3.8-1.76 3.8-3.84 0-2.16-1.663-3.84-3.8-3.84zm-.792 4.32c-.554 0-.95-.48-.95-.96 0-.56.475-.96.95-.96.554 0 .95.48.95.96.08.56-.396.96-.95.96zm2.138 1.12c-.317 0-.634-.32-.634-.64s.317-.64.634-.64c.316 0 .633.32.633.64s-.317.64-.633.64z" fill="#795929"/></g></g></svg>