<svg width="162" height="162" viewBox="0 0 162 162" xmlns="http://www.w3.org/2000/svg"><title>Slice 1</title><g fill="none" fill-rule="evenodd"><path d="M0 0h162v162H0z"/><g stroke-width="4.2" stroke="#FFF"><g transform="translate(42 28)"><circle cx="77.9" cy="8.8" r="8.5"/><path d="M84.3 28.2c.4-2.7-1.7-5.2-4.4-5.4L66.7 22c-1.8-.1-3.5-1-4.6-2.4l-11.4-14c-1.3-1.7-3.8-1.8-5.4-.4-1.4 1.3-1.6 3.4-.5 4.9l10 14c2.9 4 7.4 6.6 12.3 7.1l6.5.6"/><path d="M67.1 31.2c-4.9-.5-9.4-3.1-12.3-7.1l-10-14c-.5-.8-.8-1.7-.7-2.6-1.4-.9-3.3-.9-4.6.3-1.4 1.3-1.6 3.4-.5 4.9l10 14c2.9 4 7.4 6.6 12.3 7.1l2.9.3"/><path d="M65.7 31s-.4 7.3-6.2 13.1C54.7 49 39.8 51.8 31 53.2c-2.9.5-5.6 1.6-8 3.2L1.8 71.2c-1.9 1.4-2.4 4.1-.9 5.9 1.3 1.7 3.8 2.1 5.6.9l22-14.8s2.7-1.9 7.1-3.2"/><path d="M51.6 55.3l-14.9 4.3c-2.6.7-4.6 2.5-5.6 5l-8.6 22.6c-1 2.5.3 5.4 2.9 6.3 2.5.9 5.3-.3 6.3-2.9l8-21.3c.5-1.3 1.7-2.3 3.1-2.6L57 64.2c7.4-1.3 14-5.7 18.1-12 4.4-6.9 9.2-16.1 9.2-24.2"/></g><path d="M49.7 11.8L66 41.9M72.4 11.8l11.3 20.9M95.9 11.8l6.1 11.4M86.1 36.2v.2-.2zM81.5 35.9c1.3-1.2 3.2-1.2 4.5-.3v.2c0-.9.4-1.9 1.2-2.5 1.6-1.4 4-1.2 5.3.4l.3.4 14.5-7.6c1.3-.7 1.8-2.3 1.1-3.6-.7-1.3-2.3-1.8-3.6-1.1L62.6 43.7c-1.3.7-1.8 2.3-1.1 3.6.7 1.3 2.3 1.8 3.6 1.1l15.7-8.2c-.8-1.4-.5-3.2.7-4.3z"/><path d="M86.3 37.1c0-.1-.1-.2-.1-.3 0 .1 0 .2.1.3zM77.9 107.6c7.2 7.4 15 16.5 23.4 27.7 0 0-29.5-11.5-54.7-8.7 0 0-22.5-21.5-26.7-45.8l9.3-6.2s10.5 1.2 28.4 14.8M64.6 95.1c1.9 1.6 3.4 3 5.5 4.9"/><path d="M9.5 148.9s27.8-24.8 75.2-10c47.3 14.8 56.5 7.8 67.8 1.2"/></g></g></svg>