<svg width="118" height="118" viewBox="0 0 118 118" xmlns="http://www.w3.org/2000/svg"><title>Slice 1</title><g fill="none" fill-rule="evenodd"><path d="M103.383 69.89V67.72l-1.03-.985-.017-1.875-1.15-1.085v-1.676l-1.1-1.48V58.64l-1.1-1.577V54.99l-1.1-.888V52.13l-1.098-.793V47.884L94.59 46.8v-1.382l-2.198-.198v-3.255l-2.2-.297v-1.282l-1.098-.296v-1.48l-1.1-.494V37.03l-1.577-.19-.785-.29h-.986l-.492-2.128-1.283-.116-.79-1.053h-.89l-1.083-2.198h-1.48l-1.284-1.1H76.06l-1.084-.804-.986.438-1.086-.768-1.973.207-1.184-.784-1.184.3-.888-.887-1.186.297-.89-.786-1.78.692-1.288-.684-1.69.653c-5.33-.448-13.445 1.062-13.445 1.062-2.96-1.48-7.884.05-7.884.05-8.524-3.946-16.44 4.743-16.44 4.743-24.175 3.453-15.59 15.7-15.59 15.7s11.645 4.52 20.066 2.415c8.42-2.105 11.84-2.435 18.287-1.776 0 0-4.372.094-9.934 1.12-2.65.486-6.17 1.278-9.277 1.892-10.402 2.056-16.264-.634-18.917-2.49 2.576 7.948 25.573 11.52 32.94 12.466 7.446-.01 14.19-.415 19.53.366 16.292 2.38 23.024 7.63 23.024 7.63-7.6-2.413-15.635-5.487-23.025-6.184-7.842-.738-13.477-1.19-17.225-1.464 2.41 4.678 9.527 6.334 9.527 6.334-.173 1.656.962 5.24 1.228 6.05 12.688 8.76 25.218-.724 25.218-.724-11.147 10.852-21.036 4.84-25.287 1.153-4.177 8.714-2.342 13.55-2.342 13.55 1.875 16.48 38.78 6.91 38.78 6.91 8.98-2.37 10.855-11.053 10.855-11.053 2.762-3.55 9.07-4.342 9.07-4.342l-6.617-11.347zM13.138 42.067c-.63-2.65 3.42-.727 3.42-.727s-2.763 3.486-3.42.726zM43.3 36.833c-2.07 0-3.75-.895-3.75-2 0-.967 1.286-1.773 2.998-1.96.267.292 1.87 2.176.752 3.96 0 0 2.184-1.103 1.67-3.79 1.23.328 2.08 1.006 2.08 1.79 0 1.105-1.68 2-3.75 2zM63.814 49.76L61.05 51.44s-.533-6.414 2.764-8.29v6.613zM92.737 67.72c-5.33-9.274-23.09-12.037-23.09-12.037.854 0 17.563-.262 22.96 9.538 2.485 4.517 3.86 7.84 5.59 10.002 1.732 2.16 3.816 3.157 3.816 3.157-2.764 0-3.947-1.38-9.276-10.66z" fill="#FFF"/><path fill="none" d="M0 0h118v118H0z"/></g></svg>