<svg xmlns="http://www.w3.org/2000/svg" viewBox="0 0 164 164"><g fill="#FFF"><path d="M54.1 68.8l22 8.4c-5-15.8-22-8.4-22-8.4zM54.1 71.4c8.3 16.7 21.4 7.7 21.4 7.7l-21.4-7.7zM86 77.2l22-8.4s-16.9-7.4-22 8.4zM108 71.4l-21.4 7.7c.1 0 13.1 9 21.4-7.7zM87.6 120.2c-3.9-.5-5.6 1.3-5.6 1.3s-1.8-1.7-5.6-1.3-5.2 4.6-5.2 4.6h21.6c0 .1-1.3-4.1-5.2-4.6zM71.6 128.1c3 7 10.4 6.4 10.4 6.4s7.5.6 10.4-6.4H71.6zM55.2 125.3c-3.7 0-6.7 3-6.7 6.7s3 6.7 6.7 6.7 6.7-3 6.7-6.7-3-6.7-6.7-6.7zm0 9.2c-1.4 0-2.5-1.1-2.5-2.5s1.1-2.5 2.5-2.5 2.5 1.1 2.5 2.5-1.1 2.5-2.5 2.5z"/><path d="M125.4 64.9c-1.7-1.9-4.3-2.9-7.6-2.9h-.4c1.2-11.7-.3-21.5-4.3-29.1 0 0 0-.1-.1-.1-1.2-2.3-2.7-4.5-4.4-6.4-10-11.4-24.9-11.7-26.5-11.7h-.4c-1.7 0-16.6.3-26.6 11.7-1.8 2-3.3 4.3-4.6 6.8 0 0 0 .1-.1.1-3.8 7.6-5.2 17.2-4 28.8H46c-3.3 0-5.9 1-7.6 2.9-1.6 1.8-2.2 4.4-1.9 7.5.5 3.9 2.4 9 4.4 14.4 3.5 9.1 7.4 19.5 5.1 26.1-.4 1.1-.8 2.2-1.1 3.2-3.5 9.9-6 17.1-.5 25 2.4 3.5 6.1 5.5 10.2 5.5 4.2 0 8.6-2.1 11.2-5.6 2.4 5 7.4 8.3 13.1 8.3h4.3c6 0 11.3-3.6 13.5-9.1 2.5 4.3 7.2 6.7 11.7 6.7 4.3 0 8.2-2.1 10.7-5.7 5.5-7.9 2.9-15.1-.5-25-.4-1-.7-2.1-1.1-3.2-2.3-6.6 1.6-17 5.1-26.1 2-5.4 4-10.5 4.4-14.4.6-3.4 0-5.9-1.6-7.7zM53.8 36.1c3.8-.2 16.6-.2 26.9 7.5.4.3.8.4 1.3.4s1-.2 1.4-.5c.1-.1 11-9.2 26.5-7.8.9 1.9 1.6 3.9 2.2 6.1-15-2.5-26.2 7.9-30.2 12.2-13-12.7-25.1-12.9-30.1-12.3.6-1.9 1.2-3.8 2-5.6zm28-17.3H82.1c1.5 0 14.6.3 23.4 10.3.6.7 1.2 1.5 1.8 2.3-12.8-.3-22.1 5.5-25.4 7.9-9.4-6.4-20.1-7.4-25.7-7.4.7-1 1.4-1.9 2.1-2.8 8.8-10 22-10.3 23.5-10.3zm-27 123.7c-1.9 0-4.7-.6-6.8-3.7-4.2-6.1-2.2-11.8 1.1-21.2.4-1.1.8-2.1 1.1-3.3 2.8-8.1-1.4-19.2-5.1-29-1.9-5.1-3.8-10-4.2-13.4-.2-1.9 0-3.4.8-4.3 1.1-1.2 3-1.4 4.5-1.4h1c.3 1.7.7 3.6 1.1 5.5 4.6 22.9 9.6 40.6 13.3 53.8.4 1.5.8 2.9 1.2 4.3.7 2.5 1.2 4.2 1.3 4.9-.3 4.6-5 7.8-9.3 7.8zm38.6-4.6c-1.4 4.4-5.3 7.3-9.9 7.3h-4.3c-4.8 0-8.9-3.2-10.1-7.8-.3-1.1-.6-2.2-.9-3.4-.4-1.6-.9-3.4-1.4-5.2-3.1-11.3-10.4-38.6-14.3-57.5-.5-2.4-1-4.8-1.5-7.3-.9-6.6-.9-12.6-.1-17.8 1.9-.4 15.1-2.7 29.5 12.4.4.4.9.7 1.5.7h.1c.6 0 1.2-.3 1.6-.8.1-.2 12.5-16 29.4-12.1.4 2.6.6 5.4.6 8.4-5.1-.5-17.5-.7-26.3 6.7-6.1 5.1-9.2 12.8-9.2 22.9v18.3c0 .6.3 1.2.7 1.6s1 .6 1.6.5c0 0 4-.4 6.4 1.8.9.8 1.4 1.8 1.7 3.1H72.7c-1.2 0-2.1.9-2.1 2.1s.9 2.1 2.1 2.1h18.2c1.2 0 2.1-.9 2.1-2.1 0-3.6-1.1-6.4-3.3-8.4-2.3-2.1-5.3-2.7-7.3-2.8V84.3c0-8.8 2.6-15.4 7.7-19.7 7.7-6.4 19.1-6.1 23.5-5.7-.1 1.7-.3 3.4-.5 5.1-.4 2.2-.8 4.3-1.3 6.5-3.4 16.3-9.7 39.1-13.5 52.2-.9 2.9-1.8 5.6-2.5 8.1-1 2.5-1.7 4.9-2.4 7.1zm29.7-66c-.4 3.4-2.3 8.3-4.2 13.4-3.7 9.8-7.9 20.9-5.1 29 .4 1.1.8 2.2 1.1 3.3 3.3 9.4 5.3 15.1 1.1 21.2-1.7 2.5-4.3 3.9-7.2 3.9-4.4 0-9-3.3-9.4-8.9.3-1.1 1.4-4.8 2.9-10 4.1-13.1 9.1-30.5 13.6-52.7.4-1.7.7-3.4 1-4.9h1c1.4 0 3.4.3 4.5 1.4.6.9.9 2.4.7 4.3z"/><path d="M102.1 132c0 3.7 3 6.7 6.7 6.7s6.7-3 6.7-6.7-3-6.7-6.7-6.7-6.7 3-6.7 6.7zm9.2 0c0 1.4-1.1 2.5-2.5 2.5s-2.5-1.1-2.5-2.5 1.1-2.5 2.5-2.5 2.5 1.1 2.5 2.5z"/></g></svg>