<svg width="75" height="75" viewBox="0 0 75 75" xmlns="http://www.w3.org/2000/svg"><title>Slice 1</title><g fill="none" fill-rule="evenodd"><path d="M0 0h75v75H0z"/><g fill="#FFF"><path d="M53.9 18.6c-4-4.3-9.5-6.6-15.6-6.6h-1.6C24.5 12 14.5 21.7 14 33.8v11.3c.1 5.4 2.1 10.7 5.6 14.7.2.2.5.3.8.3h.3l36.5-10c.3-.1.6-.4.7-.7.4-1.5.7-3 .8-4.5l.8-10.2c.3-6.1-1.6-11.8-5.6-16.1zM36.8 31.3c.4-.1.8-.1 1.2-.1.9 0 2 .2 2.6 1.1.6.8.5 2.1-.1 3.7l-3.3 7.7L16 44v-9.1l20.8-3.6zm20.6 3.2l-.8 10.2c-.1 1.2-.3 2.4-.6 3.6L20.8 58c-2.8-3.4-4.5-7.6-4.7-12l21.9-.2c.4 0 .8-.2.9-.6l3.5-8.3c.9-2.2.9-4.1-.1-5.5-1.1-1.6-3.2-2.3-5.8-1.9l-20.4 3.4c1-10.5 9.8-18.8 20.6-18.8h1.6c5.5 0 10.5 2.1 14.1 6 3.6 3.8 5.4 9 5 14.4z"/><path d="M49 34c-2.2 0-4 1.8-4 4s1.8 4 4 4 4-1.8 4-4-1.8-4-4-4zm0 6c-1.1 0-2-.9-2-2s.9-2 2-2 2 .9 2 2-.9 2-2 2zM35 38c.3 0 .5-.1.7-.3l3-3c.4-.4.4-1 0-1.4-.4-.4-1-.4-1.4 0l-3 3c-.4.4-.4 1 0 1.4.2.2.4.3.7.3zM55.6 51.5l-31.8 8.7c-.5.1-.8.7-.7 1.2.1.4.5.7 1 .7h.3l31.8-8.7c.5-.1.8-.7.7-1.2-.1-.5-.8-.9-1.3-.7z"/></g></g></svg>