<svg width="109" height="109" viewBox="0 0 109 109" xmlns="http://www.w3.org/2000/svg"><title>Slice 1</title><g fill="none" fill-rule="evenodd"><path d="M0 0h109v109H0z"/><path d="M65.773 53.54H44.25c-.42 1.31-.856 2.59-1.307 3.834H67.08c-.445-1.245-.88-2.525-1.307-3.834zM67.795 59.29H42.232c-.512 1.33-1.036 2.61-1.58 3.835h28.72c-.54-1.226-1.07-2.506-1.577-3.835zM62.523 42.037H47.507c-.323 1.288-.654 2.564-.996 3.835h17.006c-.342-1.27-.674-2.547-.993-3.835zM64.045 47.79h-18.06c-.365 1.294-.743 2.574-1.13 3.832h20.317c-.39-1.26-.764-2.54-1.127-3.833zM55.014 4.656s-1.12 5.317-3.447 18.21h6.893c-2.325-12.892-3.446-18.21-3.446-18.21zM59.932 30.536h-9.834c-.26 1.268-.527 2.548-.806 3.833h11.445c-.282-1.286-.546-2.566-.805-3.834zM61.158 36.287h-12.29c-.288 1.276-.584 2.556-.892 3.834H62.05c-.306-1.277-.603-2.558-.892-3.833zM58.812 24.784h-7.598c-.233 1.258-.477 2.538-.732 3.834h9.062c-.255-1.296-.5-2.576-.732-3.834zM81.365 87.088H73.54v-5.27h-3.784v-5.273h3.785v-5.752c-1.15-1.652-2.245-3.594-3.282-5.752H39.77c-1.04 2.16-2.133 4.1-3.284 5.753v5.752h3.784v5.272h-3.784v5.27h-6.83l-7.823 16.782h66.36l-6.828-16.782zm-32.46-5.272h-5.06v-5.272h5.06v5.272zm8.638 0h-5.06v-5.272h5.06v5.272zm8.637 0h-5.06v-5.272h5.06v5.272z" fill="#FFF"/></g></svg>