<?xml version="1.0" encoding="utf-8"?>
<!-- Generator: Adobe Illustrator 18.0.0, SVG Export Plug-In . SVG Version: 6.00 Build 0)  -->
<!DOCTYPE svg PUBLIC "-//W3C//DTD SVG 1.1//EN" "http://www.w3.org/Graphics/SVG/1.1/DTD/svg11.dtd">
<svg version="1.1" id="Layer_1" xmlns:sketch="http://www.bohemiancoding.com/sketch/ns"
	 xmlns="http://www.w3.org/2000/svg" xmlns:xlink="http://www.w3.org/1999/xlink" x="0px" y="0px" width="40px" height="40px"
	 viewBox="-101 81 40 40" enable-background="new -101 81 40 40" xml:space="preserve">
<title>Fill 2</title>
<desc>Created with Sketch Beta.</desc>
<g id="Travel-Blogs" sketch:type="MSPage">
	<g id="desktop-collapsed-list" transform="translate(-470.000000, -784.000000)" sketch:type="MSArtboardGroup">
		<g id="Social-buttons" transform="translate(170.000000, 777.000000)" sketch:type="MSLayerGroup">
			<g id="Rectangle-197-_x2B_-pinterest_x5F_icon" transform="translate(288.000000, 0.000000)" sketch:type="MSShapeGroup">
				<g id="pinterest_icon" transform="translate(12.000000, 7.000000)">
					<path id="Fill-2" d="M-90.2,120.3c-0.2-2-0.4-5.1,0.1-7.2c0.5-2,3-12.5,3-12.5s-0.8-1.5-0.8-3.7c0-3.5,2-6.1,4.6-6.1
						c2.1,0,3.2,1.6,3.2,3.5c0,2.2-1.4,5.4-2.1,8.4c-0.6,2.5,1.3,4.6,3.7,4.6c4.5,0,7.9-4.7,7.9-11.5c0-6-4.3-10.3-10.5-10.3
						c-7.2,0-11.4,5.4-11.4,10.9c0,2.2,0.8,4.5,1.9,5.8c0.2,0.2,0.2,0.5,0.2,0.7c-0.2,0.8-0.6,2.5-0.7,2.9c-0.1,0.5-0.4,0.6-0.8,0.3
						c-3.1-1.5-5.1-6.1-5.1-9.8c0-7.9,5.8-15.2,16.6-15.2c8.7,0,15.5,6.2,15.5,14.6c0,8.7-5.5,15.7-13.1,15.7c-2.6,0-5-1.3-5.8-2.9
						c0,0-1.3,4.8-1.6,6c-0.6,2.2-2.1,4.9-3.1,6.6C-86.1,121.7-99.6,116.6-90.2,120.3z"/>
				</g>
			</g>
		</g>
	</g>
</g>
</svg>
