<?xml version="1.0" encoding="utf-8"?>
<!-- Generator: Adobe Illustrator 18.0.0, SVG Export Plug-In . SVG Version: 6.00 Build 0)  -->
<!DOCTYPE svg PUBLIC "-//W3C//DTD SVG 1.1//EN" "http://www.w3.org/Graphics/SVG/1.1/DTD/svg11.dtd">
<svg version="1.1" id="Layer_1" xmlns:sketch="http://www.bohemiancoding.com/sketch/ns"
	 xmlns="http://www.w3.org/2000/svg" xmlns:xlink="http://www.w3.org/1999/xlink" x="0px" y="0px" width="40px" height="40px"
	 viewBox="0 140 40 40" enable-background="new 0 140 40 40" xml:space="preserve">
<title>Rectangle 350</title>
<desc>Created with Sketch Beta.</desc>
<g>
	<g>
		<path fill="#231F20" d="M37,140H3c-1.6,0-3,1.3-3,2.9v34.3c0,1.6,1.4,2.9,3,2.9H37c1.6,0,3-1.3,3-2.9v-34.3
			C40,141.3,38.6,140,37,140z M11.9,174.1H5.9V155h5.9V174.1z M8.9,152.3c-1.9,0-3.4-1.5-3.4-3.4c0-1.9,1.5-3.4,3.4-3.4
			s3.4,1.5,3.4,3.4C12.3,150.9,10.7,152.3,8.9,152.3z M34.1,174.1h-5.9v-9.3c0-2.2,0-5-3.1-5s-3.5,2.4-3.5,4.9v9.5h-5.9V155h5.7v2.6
			h0.1c0.8-1.5,2.7-3.1,5.6-3.1c6.1,0,7.1,4,7.1,9.1V174.1z"/>
	</g>
</g>
</svg>
