<?xml version="1.0" encoding="utf-8"?>
<!-- Generator: Adobe Illustrator 18.0.0, SVG Export Plug-In . SVG Version: 6.00 Build 0)  -->
<!DOCTYPE svg PUBLIC "-//W3C//DTD SVG 1.1//EN" "http://www.w3.org/Graphics/SVG/1.1/DTD/svg11.dtd">
<svg version="1.1" id="Layer_1" xmlns:sketch="http://www.bohemiancoding.com/sketch/ns"
	 xmlns="http://www.w3.org/2000/svg" xmlns:xlink="http://www.w3.org/1999/xlink" x="0px" y="0px" width="40px" height="40px"
	 viewBox="0 0 40 40" enable-background="new 0 0 40 40" xml:space="preserve">
<title>Shape 7</title>
<desc>Created with Sketch Beta.</desc>
<g id="Travel-Blogs" sketch:type="MSPage">
	<g id="desktop-collapsed-list" transform="translate(-185.000000, -786.000000)" sketch:type="MSArtboardGroup">
		<g id="Social-buttons" transform="translate(170.000000, 777.000000)" sketch:type="MSLayerGroup">
			<g id="Rectangle-197-_x2B_-facebook_x5F_icon" sketch:type="MSShapeGroup">
				<g id="facebook_icon" transform="translate(15.000000, 9.000000)">
					<path id="Shape-7" d="M13.9,14.6v-2.1v-2v-0.3c0-2,0.1-5,1.5-6.8c1.5-2,3.5-3.3,7-3.3c5.7,0,8.1,0.8,8.1,0.8l-1.1,6.8
						c0,0-1.9-0.6-3.6-0.6c-1.8,0-3.3,0.6-3.3,2.4v0.7v2.4v2.1h6.7L28.5,21h-6.2l0,10.3l0,8.8h-8.5l-0.1-19H9.6l0.1-6.3H13.9z"/>
				</g>
			</g>
		</g>
	</g>
</g>
</svg>
