<?xml version="1.0" encoding="utf-8"?>
<!-- Generator: Adobe Illustrator 18.0.0, SVG Export Plug-In . SVG Version: 6.00 Build 0)  -->
<!DOCTYPE svg PUBLIC "-//W3C//DTD SVG 1.1//EN" "http://www.w3.org/Graphics/SVG/1.1/DTD/svg11.dtd">
<svg version="1.1" id="Layer_1" xmlns:sketch="http://www.bohemiancoding.com/sketch/ns"
	 xmlns="http://www.w3.org/2000/svg" xmlns:xlink="http://www.w3.org/1999/xlink" x="0px" y="0px" width="40px" height="40px"
	 viewBox="-99 80 40 40" enable-background="new -99 80 40 40" xml:space="preserve">
<title>google+_icon</title>
<desc>Created with Sketch Beta.</desc>
<g id="Travel-Blogs" sketch:type="MSPage">
	<g id="desktop-collapsed-list" transform="translate(-370.000000, -787.000000)" sketch:type="MSArtboardGroup">
		<g id="Social-buttons" transform="translate(170.000000, 777.000000)" sketch:type="MSLayerGroup">
			<g id="Rectangle-197-_x2B_-pinterest_x5F_icon" transform="translate(192.000000, 0.000000)" sketch:type="MSShapeGroup">
				<g id="google_x2B__x5F_icon" transform="translate(8.000000, 10.000000)">
					<g id="Group">
						<path id="Shape" d="M-59,88h-6V82h-2V88h-6v2h6v5.9h2v-5.9h6V88z"/>
						<path id="Shape_1_" d="M-80.4,102.7c-1-0.7-2.9-2.4-2.9-3.5c0-1.2,0.3-1.8,2.1-3.2c1.9-1.4,3.2-3.5,3.2-5.8
							c0-2.8-1.3-5.5-3.6-6.4h3.6l2.5-1.8h-11.2c-5,0-9.7,3.8-9.7,8.2c0,4.5,3.4,8.1,8.5,8.1c0.4,0,0.7,0,1,0
							c-0.3,0.6-0.6,1.3-0.6,2.1c0,1.2,0.7,2.2,1.5,3.1c-0.6,0-1.3,0-1.9,0c-6.2,0-11,3.9-11,8c0,4,5.2,6.5,11.5,6.5
							c7.1,0,11-4,11-8C-76.5,106.7-77.5,104.8-80.4,102.7L-80.4,102.7L-80.4,102.7z M-86.4,97.1L-86.4,97.1c-2.9-0.1-5.6-3.2-6.1-7
							c-0.5-3.8,1.4-6.6,4.3-6.6c2.9,0.1,5.6,3.1,6.1,6.9C-81.6,94.2-83.5,97.2-86.4,97.1L-86.4,97.1L-86.4,97.1z M-87.6,116.2
							L-87.6,116.2c-4.3,0-7.4-2.7-7.4-5.9c0-3.2,3.9-5.8,8.1-5.8c1,0,1.9,0.2,2.8,0.4c2.3,1.6,4,2.5,4.5,4.4
							c0.1,0.4,0.1,0.8,0.1,1.1C-79.4,113.6-81.5,116.2-87.6,116.2L-87.6,116.2z"/>
					</g>
				</g>
			</g>
		</g>
	</g>
</g>
</svg>
