<?xml version="1.0" encoding="utf-8"?>
<!-- Generator: Adobe Illustrator 18.0.0, SVG Export Plug-In . SVG Version: 6.00 Build 0)  -->
<!DOCTYPE svg PUBLIC "-//W3C//DTD SVG 1.1//EN" "http://www.w3.org/Graphics/SVG/1.1/DTD/svg11.dtd">
<svg version="1.1" id="Layer_1" xmlns:sketch="http://www.bohemiancoding.com/sketch/ns"
	 xmlns="http://www.w3.org/2000/svg" xmlns:xlink="http://www.w3.org/1999/xlink" x="0px" y="0px" width="40px" height="40px"
	 viewBox="-100 78 40 40" enable-background="new -100 78 40 40" xml:space="preserve">
<title>Shape 6</title>
<desc>Created with Sketch Beta.</desc>
<g id="Travel-Blogs" sketch:type="MSPage">
	<g id="desktop-collapsed-list" transform="translate(-277.000000, -788.000000)" sketch:type="MSArtboardGroup">
		<g id="Social-buttons" transform="translate(170.000000, 777.000000)" sketch:type="MSLayerGroup">
			<g id="Rectangle-197-_x2B_-twitter_x5F_icon" transform="translate(96.000000, 0.000000)" sketch:type="MSShapeGroup">
				<g id="twitter_icon" transform="translate(11.000000, 11.000000)">
					<path id="Shape-6" d="M-64.7,86.6c1.7-1,3-2.7,3.6-4.7c-1.6,1-3.3,1.7-5.2,2c-1.5-1.6-3.6-2.7-6-2.7c-4.5,0-8.2,3.8-8.2,8.4
						c0,0.7,0.1,1.3,0.2,1.9c-6.8-0.4-12.9-3.7-16.9-8.8c-0.7,1.2-1.1,2.7-1.1,4.2c0,2.9,1.4,5.5,3.7,7c-1.3,0-2.6-0.4-3.7-1.1
						c0,0,0,0.1,0,0.1c0,4.1,2.8,7.5,6.6,8.3c-0.7,0.2-1.4,0.3-2.2,0.3c-0.5,0-1-0.1-1.5-0.2c1,3.3,4.1,5.8,7.7,5.8
						c-2.8,2.3-6.3,3.6-10.2,3.6c-0.7,0-1.3,0-2-0.1c3.6,2.4,7.9,3.8,12.6,3.8c15.1,0,23.3-12.8,23.3-23.9c0-0.4,0-0.7,0-1.1
						c1.6-1.2,3-2.7,4.1-4.4C-61.5,85.9-63.1,86.4-64.7,86.6z"/>
				</g>
			</g>
		</g>
	</g>
</g>
</svg>
