<?xml version="1.0" encoding="UTF-8" standalone="no"?>
<svg width="120px" height="120px" viewBox="0 0 120 120" version="1.1" xmlns="http://www.w3.org/2000/svg" xmlns:xlink="http://www.w3.org/1999/xlink" xmlns:sketch="http://www.bohemiancoding.com/sketch/ns">
    <!-- Generator: Sketch Beta 3.3.2 (12041) - http://www.bohemiancoding.com/sketch -->
    <title>logotype-landing</title>
    <desc>Created with Sketch Beta.</desc>
    <defs></defs>
    <g id="Page-1" stroke="none" stroke-width="1" fill="none" fill-rule="evenodd" sketch:type="MSPage">
        <g id="logotype-landing" sketch:type="MSLayerGroup">
            <g id="Group" sketch:type="MSShapeGroup">
                <path d="M63.1632981,75.5328762 C46.2738303,76.2025019 31.3253288,74.1384296 24.295,72.934 C21.675,72.484 19.565,70.52 18.915,67.924 C15.433,54.031 14.582,41.637 14.659,32.363 C14.657,31.433 14.684,30.387 14.722,29.353 C14.73,29.058 14.74,28.754 14.758,28.466 C14.866,25.995 15.024,23.823 15.024,23.823 C15.115,22.486 15.216,21.42 15.348,20.23 C15.673,17.288 17.876,14.915 20.761,14.352 C22.056,14.099 23.053,13.905 24.112,13.712 C24.73,13.6 25.369,13.488 26.096,13.391 L28.112,13.051 C28.503,12.988 28.883,12.936 29.27,12.876 L29.822,12.792 C30.329,12.715 30.841,12.634 31.345,12.562 C31.292,11.5 32.045,10.549 33.115,10.404 L37.725,9.777 C38.831,9.627 39.843,10.393 40.025,11.491 C42.207,11.271 44.332,11.093 46.405,10.951 L45.991,4.985 C45.866,3.163 47.171,1.529 48.961,1.265 C52.229,0.782 58.839,0.142 66.371,1.272 C68.153,1.539 69.456,3.167 69.338,4.979 L68.958,10.796 C70.929,10.912 72.809,11.059 74.604,11.219 C74.749,10.075 75.79,9.271 76.922,9.425 L81.532,10.051 C82.643,10.203 83.412,11.216 83.298,12.326 C84.566,12.526 85.756,12.734 86.886,12.944 L87.292,13.022 L89.182,13.37 C89.4,13.413 89.6,13.456 89.872,13.513 C92.172,13.999 93.659,14.417 95.252,14.857 C97.981,15.612 99.941,18.029 100.148,20.872 C100.316,23.212 100.408,25.082 100.483,27.112 C100.542,28.487 100.582,29.655 100.615,30.418 L100.629,31.103 L100.633,31.354 C101.008,49.844 98.508,61.329 96.928,66.651 C96.265,68.881 94.499,70.588 92.275,71.216 C86.5241753,72.8388031 80.6164849,73.9308034 74.7756893,74.6265198 L73.897,82.386 C73.778,83.436 72.415,83.751 71.855,82.858 L63.1632981,75.5328762 Z M65.19,10.618 C60.6,10.454 55.584,10.468 50.175,10.731 L49.863,6.229 C49.815,5.529 50.318,4.913 51.01,4.834 C53.853,4.508 58.787,4.176 64.32,4.834 C65.012,4.916 65.523,5.526 65.476,6.226 L65.191,10.619 L65.19,10.618 Z" id="Shape" fill="#FF5500"></path>
                <path d="M28.865,49.93 C29.259,49.84 29.658,49.78 30.051,49.748 C30.275,49.73 30.501,49.72 30.724,49.72 C34.662,49.72 38.144,52.533 39.004,56.41 C39.501,58.638 39.104,60.93 37.89,62.86 C36.674,64.79 34.788,66.128 32.574,66.626 C32.187,66.716 31.789,66.776 31.388,66.809 C31.166,66.826 30.94,66.835 30.718,66.835 C26.778,66.835 23.296,64.022 22.435,60.145 C21.939,57.917 22.335,55.625 23.55,53.695 C24.764,51.765 26.65,50.427 28.865,49.928 L28.865,49.93 Z M28.695,49.017 C28.689,49.017 28.685,49.02 28.681,49.021 L27.891,49.201 L27.507,47.471 C27.424,47.097 27.657,46.726 28.03,46.641 C28.06,46.634 28.093,46.631 28.122,46.627 C28.142,46.625 28.16,46.625 28.178,46.625 C28.498,46.625 28.78,46.853 28.85,47.168 L29.235,48.898 L28.711,49.015 L28.695,49.018 L28.695,49.017 Z M21.535,60.351 C22.49,64.647 26.351,67.766 30.717,67.766 C30.965,67.766 31.215,67.756 31.462,67.736 C31.904,67.699 32.347,67.633 32.777,67.536 C35.23,66.981 37.323,65.498 38.669,63.358 C40.015,61.218 40.454,58.678 39.904,56.205 C38.949,51.91 35.087,48.791 30.72,48.791 C30.574,48.791 30.425,48.801 30.277,48.809 L29.902,47.119 C29.725,46.326 29.009,45.749 28.199,45.749 C28.072,45.749 27.945,45.763 27.819,45.791 C26.884,46.001 26.292,46.943 26.501,47.888 L26.884,49.613 C25.202,50.365 23.776,51.598 22.769,53.2 C21.424,55.338 20.984,57.877 21.533,60.35 L21.535,60.351 Z" id="Shape" fill="#FFFFFF"></path>
                <path d="M25.17,54.73 C26.008,53.398 27.263,52.434 28.74,51.967 L29.01,53.177 C29.065,53.434 29.297,53.621 29.56,53.621 L29.602,53.621 C29.629,53.619 29.656,53.614 29.682,53.609 C29.828,53.576 29.952,53.487 30.032,53.359 C30.114,53.231 30.14,53.079 30.108,52.931 L29.842,51.731 C29.962,51.714 30.08,51.686 30.202,51.676 C30.374,51.661 30.549,51.654 30.722,51.654 C33.58,51.654 36.129,53.57 36.984,56.284 L35.919,56.524 C35.615,56.591 35.424,56.896 35.492,57.201 C35.548,57.458 35.779,57.645 36.042,57.645 C36.056,57.645 36.072,57.645 36.085,57.643 C36.111,57.643 36.139,57.637 36.165,57.631 L37.227,57.391 C37.437,58.934 37.105,60.488 36.265,61.821 C35.425,63.157 34.172,64.121 32.698,64.591 L32.438,63.427 C32.381,63.17 32.152,62.983 31.891,62.983 C31.848,62.983 31.806,62.988 31.767,62.997 C31.619,63.03 31.493,63.119 31.413,63.247 C31.333,63.375 31.306,63.527 31.338,63.675 L31.595,64.825 C31.475,64.842 31.357,64.871 31.235,64.881 C31.062,64.895 30.887,64.901 30.715,64.901 C27.857,64.901 25.308,62.987 24.453,60.274 L25.45,60.049 C25.597,60.016 25.722,59.927 25.802,59.799 C25.882,59.672 25.909,59.519 25.877,59.371 C25.817,59.114 25.587,58.927 25.327,58.927 C25.285,58.927 25.242,58.932 25.202,58.941 L24.208,59.166 C23.998,57.621 24.328,56.066 25.168,54.732 L25.17,54.73 Z M23.374,59.936 C24.137,63.371 27.224,65.866 30.717,65.866 C30.915,65.866 31.117,65.856 31.313,65.841 C31.669,65.811 32.023,65.758 32.365,65.681 C36.415,64.767 38.971,60.701 38.065,56.621 C37.302,53.185 34.215,50.691 30.722,50.691 C30.522,50.691 30.322,50.701 30.125,50.716 C29.775,50.743 29.423,50.796 29.075,50.876 C27.111,51.319 25.437,52.506 24.362,54.216 C23.285,55.926 22.934,57.958 23.374,59.936 L23.374,59.936 Z" id="Shape" fill="#FFFFFF"></path>
                <path d="M31.33,61.802 L29.06,59.402 C28.96,59.294 29.012,59.116 29.155,59.084 L32.527,58.324 C32.67,58.29 32.794,58.428 32.747,58.569 L31.707,61.717 C31.673,61.821 31.583,61.865 31.493,61.871 C31.43,61.871 31.373,61.847 31.331,61.801 L31.33,61.802 Z M30.458,62.272 C30.708,62.537 31.043,62.682 31.404,62.682 C31.439,62.682 31.474,62.682 31.509,62.678 C32.035,62.635 32.481,62.282 32.649,61.778 L33.649,58.746 C33.759,58.41 33.684,58.041 33.459,57.772 C33.454,57.767 33.454,57.76 33.449,57.756 L33.443,57.749 L33.44,57.743 C33.437,57.739 33.432,57.736 33.428,57.733 L30.398,54.679 C30.294,54.569 30.155,54.509 30.006,54.509 C29.771,54.509 29.563,54.659 29.49,54.881 L28.035,58.944 C28.033,58.948 28.037,58.952 28.037,58.957 L28.034,58.964 C27.929,59.314 28.018,59.694 28.269,59.959 L30.457,62.272 L30.458,62.272 Z M39.384,34.964 C39.264,34.566 38.994,34.239 38.63,34.044 C38.265,33.849 37.847,33.808 37.45,33.93 C37.226,33.998 37.025,34.115 36.854,34.275 C36.426,34.672 36.254,35.317 36.424,35.878 L37.188,38.398 C37.152,38.388 37.113,38.388 37.078,38.378 C37.028,38.363 36.986,38.34 36.938,38.324 C36.796,38.274 36.654,38.219 36.516,38.148 C36.476,38.128 36.439,38.103 36.401,38.081 C36.267,38.005 36.139,37.921 36.019,37.827 C35.979,37.795 35.939,37.762 35.901,37.729 C35.791,37.635 35.691,37.533 35.597,37.426 C35.561,37.384 35.524,37.346 35.49,37.302 C35.4,37.188 35.32,37.064 35.246,36.938 C35.221,36.896 35.192,36.858 35.169,36.813 C35.079,36.643 35.005,36.467 34.947,36.281 C34.94,36.244 34.94,36.205 34.927,36.171 C34.9,36.105 34.874,36.041 34.853,35.973 L34.363,34.357 L34.073,33.405 L34.073,33.4 L32.926,29.622 L30.953,23.122 C30.883,22.857 30.82,22.548 30.791,22.252 C30.784,22.136 30.775,22.019 30.781,21.902 C30.781,21.89 30.781,21.878 30.783,21.865 C30.806,21.503 30.889,21.142 31.035,20.801 C31.115,20.614 31.217,20.439 31.329,20.273 C31.359,20.228 31.394,20.185 31.427,20.141 C31.51,20.031 31.602,19.927 31.699,19.828 C31.752,19.774 31.804,19.72 31.861,19.671 C32.001,19.548 32.148,19.437 32.306,19.341 L32.324,19.329 L32.328,19.326 C32.538,19.2 32.765,19.096 33.008,19.021 C34.665,18.511 36.426,19.455 36.934,21.125 L40.964,34.408 C41.18,35.12 41.136,35.894 40.84,36.588 C40.68,36.958 40.45,37.284 40.17,37.568 L39.382,34.965 L39.384,34.964 Z M34.05,36.87 C34.104,37.006 34.162,37.138 34.227,37.265 C34.237,37.285 34.244,37.302 34.254,37.32 C34.361,37.524 34.487,37.715 34.624,37.897 C34.648,37.927 34.668,37.957 34.692,37.987 C34.824,38.151 34.972,38.303 35.128,38.447 C35.168,38.485 35.208,38.523 35.252,38.559 C35.404,38.686 35.567,38.803 35.738,38.909 C35.768,38.929 35.794,38.955 35.825,38.973 C35.48,38.918 35.143,38.803 34.83,38.638 C34.102,38.248 33.57,37.603 33.317,36.821 L34.051,36.869 L34.05,36.87 Z M30.305,24.58 L32.859,32.994 L32.139,32.958 L29.679,24.856 L30.304,24.581 L30.305,24.58 Z M38.868,38.367 C38.683,38.424 38.494,38.46 38.305,38.481 L37.421,35.571 C37.348,35.323 37.511,35.014 37.757,34.937 C37.887,34.897 38.022,34.91 38.142,34.974 C38.262,35.038 38.348,35.144 38.388,35.274 L39.273,38.194 C39.143,38.254 39.013,38.324 38.871,38.368 L38.868,38.367 Z M30.098,20.344 C30.093,20.357 30.085,20.37 30.08,20.384 C30.062,20.424 30.055,20.464 30.04,20.504 C29.963,20.697 29.894,20.891 29.847,21.091 L29.842,21.121 C29.832,21.171 29.826,21.225 29.816,21.278 L29.334,21.49 C29.506,21.02 29.774,20.584 30.136,20.244 C30.12,20.276 30.113,20.312 30.098,20.344 L30.098,20.344 Z M27.674,24.024 L27.426,23.471 L29.753,22.453 C29.755,22.487 29.757,22.521 29.763,22.556 C29.783,22.739 29.828,22.918 29.873,23.098 C29.889,23.16 29.893,23.223 29.911,23.284 L29.971,23.477 C29.979,23.507 29.986,23.543 29.994,23.571 L27.887,24.501 L27.675,24.026 L27.674,24.024 Z M33.709,35.794 L23.373,35.124 L25.193,34.309 C26.038,33.929 26.966,33.753 27.873,33.799 L33.183,34.063 L33.708,35.793 L33.709,35.794 Z M31.88,18.368 C31.592,18.395 31.313,18.443 31.05,18.525 C29.873,18.887 28.915,19.755 28.423,20.909 C28.271,21.262 28.183,21.635 28.133,22.013 L26.523,22.718 C26.403,22.77 26.306,22.868 26.246,23.008 C26.196,23.138 26.199,23.288 26.256,23.415 L26.509,23.981 L25.985,24.223 L24.295,23.438 C24.167,23.378 24.018,23.374 23.887,23.425 C23.755,23.475 23.651,23.578 23.595,23.709 L22.907,25.346 L21.335,24.659 C21.205,24.603 21.055,24.602 20.925,24.657 C20.801,24.71 20.703,24.807 20.642,24.95 L20.642,24.952 L20.122,26.294 L19.795,25.949 C19.645,25.789 19.411,25.743 19.212,25.829 L17.496,26.571 C17.24,26.683 17.112,27.007 17.222,27.261 C17.277,27.391 17.379,27.491 17.508,27.543 C17.636,27.595 17.778,27.593 17.905,27.538 L19.291,26.938 L19.935,27.615 C20.059,27.745 20.238,27.8 20.413,27.765 C20.583,27.732 20.723,27.617 20.798,27.442 L21.416,25.842 L22.973,26.52 C23.1,26.575 23.245,26.577 23.373,26.526 C23.501,26.474 23.606,26.372 23.661,26.243 L24.344,24.619 L25.764,25.281 C25.904,25.346 26.062,25.346 26.2,25.281 L26.937,24.941 L27.143,25.405 C27.261,25.668 27.568,25.785 27.828,25.671 L28.716,25.281 L31.03,32.901 L27.924,32.747 C26.854,32.694 25.762,32.901 24.767,33.347 L22.1,34.54 C21.71,34.715 21.496,35.19 21.633,35.576 C21.743,35.886 22.02,36.09 22.359,36.112 L32.196,36.75 L32.296,37.084 C32.621,38.157 33.346,39.04 34.339,39.568 C35.329,40.098 36.462,40.208 37.529,39.878 C37.749,39.811 37.969,39.713 38.183,39.603 C39.245,39.623 40.118,38.993 40.221,38.913 C40.235,38.903 40.248,38.893 40.259,38.881 C40.277,38.866 40.285,38.843 40.299,38.825 C40.469,38.708 40.635,38.585 40.789,38.441 C41.221,38.038 41.559,37.555 41.794,37.006 C42.19,36.08 42.249,35.049 41.961,34.1 L37.931,20.816 C37.253,18.591 34.901,17.336 32.689,18.019 C32.403,18.105 32.134,18.223 31.879,18.367 L31.88,18.368 Z" id="Shape" fill="#FFFFFF"></path>
                <path d="M32.892,22.055 C32.83,21.847 32.842,21.622 32.928,21.421 C32.978,21.301 33.053,21.198 33.148,21.111 C33.248,21.016 33.366,20.948 33.498,20.908 C33.731,20.836 33.978,20.86 34.193,20.975 C34.408,21.091 34.566,21.283 34.637,21.517 C34.697,21.717 34.683,21.939 34.597,22.141 C34.487,22.396 34.281,22.587 34.032,22.666 C33.552,22.813 33.04,22.539 32.892,22.056 L32.892,22.055 Z M35.092,23.235 C35.292,23.047 35.449,22.823 35.558,22.568 C35.743,22.136 35.77,21.654 35.635,21.208 C35.32,20.17 34.223,19.583 33.193,19.901 C32.909,19.991 32.655,20.137 32.439,20.338 C31.896,20.84 31.679,21.658 31.894,22.363 C32.209,23.403 33.304,23.988 34.334,23.671 C34.62,23.584 34.874,23.437 35.09,23.235 L35.092,23.235 Z M54.883,28.486 C54.646,28.616 54.396,28.716 54.111,28.794 C51.706,29.564 50.023,29.682 49.035,29.644 C48.289,29.62 47.625,29.134 47.355,28.43 C46.843,27.1 46.488,25.878 46.28,25.085 C46.173,24.685 46.353,24.275 46.727,24.068 C50.594,22.033 54.933,20.878 56.619,20.478 C56.886,20.412 57.167,20.584 57.239,20.851 L57.379,21.376 C57.766,22.822 57.371,27.106 54.882,28.486 L54.883,28.486 Z M58.163,20.599 C58.011,20.029 57.54,19.602 56.966,19.514 C56.776,19.484 56.586,19.494 56.399,19.537 C54.679,19.947 50.249,21.125 46.294,23.207 L46.244,23.232 C45.504,23.644 45.136,24.508 45.354,25.332 C45.567,26.147 45.934,27.406 46.461,28.777 C46.828,29.734 47.676,30.424 48.674,30.577 C48.781,30.593 48.889,30.605 48.997,30.609 C50.063,30.647 51.862,30.525 54.377,29.719 C54.715,29.629 55.04,29.499 55.343,29.329 C58.306,27.685 58.76,22.832 58.303,21.123 L58.163,20.598 L58.163,20.599 Z M71.86,23.45 C71.7,23.552 71.542,23.645 71.38,23.736 C70.22,24.38 68.755,24.903 67.022,25.294 C66.086,25.554 65.082,25.384 64.062,24.798 C62.234,23.748 60.807,21.608 60.519,20.532 L60.379,20.008 C60.315,19.774 60.417,19.528 60.626,19.413 C60.658,19.396 60.692,19.381 60.726,19.371 C62.381,18.864 66.701,17.664 71.069,17.461 C71.126,17.459 71.184,17.461 71.241,17.471 C71.588,17.523 71.871,17.776 71.964,18.113 C72.18,18.903 72.484,20.143 72.704,21.55 C72.824,22.3 72.491,23.048 71.86,23.45 L71.86,23.45 Z M71.397,16.516 C71.277,16.496 71.151,16.491 71.027,16.496 C66.557,16.704 62.141,17.93 60.45,18.448 C60.352,18.478 60.256,18.518 60.166,18.568 C59.569,18.9 59.276,19.595 59.456,20.258 L59.596,20.784 C59.934,22.05 61.51,24.441 63.586,25.634 C64.221,25.999 64.858,26.234 65.483,26.33 C66.086,26.422 66.683,26.387 67.255,26.228 C69.059,25.823 70.602,25.268 71.84,24.581 C72.02,24.481 72.195,24.379 72.372,24.267 C73.328,23.657 73.83,22.533 73.65,21.399 C73.423,19.949 73.11,18.673 72.888,17.857 C72.696,17.153 72.11,16.627 71.398,16.517 L71.397,16.516 Z" id="Shape" fill="#FFFFFF"></path>
                <path d="M74.314,23.27 C74.212,23.83 73.582,24.444 72.494,25.048 C70.924,25.92 68.502,26.685 66.321,26.998 C65.877,27.063 65.477,27.068 65.101,27.008 C64.061,26.848 63.379,26.246 62.581,25.538 C62.231,25.23 61.868,24.908 61.457,24.62 C60.867,24.204 60.087,24.164 59.453,24.515 C59.098,24.712 58.821,25.012 58.651,25.382 C58.495,25.725 58.355,26.076 58.216,26.425 C57.696,27.732 57.206,28.965 55.796,29.748 C55.626,29.844 55.439,29.932 55.246,30.012 C52.581,31.099 49.994,31.592 48.326,31.336 C47.672,31.236 47.168,31.021 46.83,30.699 C45.86,29.773 45.18,26.337 44.927,25.044 C44.767,24.239 45.135,23.432 45.841,23.037 L45.921,22.994 C50.781,20.294 58.187,18.292 58.264,18.272 C58.334,18.252 65.306,16.206 71.334,16.102 C71.444,16.102 71.554,16.108 71.66,16.125 C72.352,16.231 72.924,16.71 73.15,17.375 C73.74,19.103 74.517,22.171 74.314,23.27 L74.314,23.27 Z M75.256,23.447 C75.536,21.929 74.456,18.237 74.056,17.063 C73.713,16.058 72.851,15.333 71.804,15.173 C71.644,15.148 71.481,15.137 71.318,15.14 C65.168,15.244 58.072,17.324 58.005,17.344 C57.93,17.364 50.455,19.374 45.457,22.15 L45.377,22.195 C44.307,22.795 43.75,24.023 43.992,25.253 C44.312,26.879 44.98,30.265 46.172,31.399 C46.657,31.859 47.338,32.161 48.196,32.293 C50.82,32.697 54.25,31.456 55.602,30.903 C55.832,30.811 56.052,30.706 56.257,30.593 C57.967,29.643 58.545,28.188 59.104,26.781 L59.117,26.747 C59.244,26.427 59.377,26.097 59.517,25.787 C59.602,25.604 59.739,25.455 59.913,25.359 C60.23,25.183 60.615,25.201 60.907,25.409 C61.277,25.669 61.625,25.976 61.957,26.272 C62.784,27.002 63.639,27.759 64.953,27.962 C65.423,28.034 65.916,28.032 66.457,27.952 C68.193,27.702 70.937,27.012 72.955,25.892 C74.322,25.132 75.095,24.31 75.255,23.446 L75.256,23.447 Z M77.522,31.87 C77.592,31.98 77.702,32.057 77.829,32.084 C77.861,32.091 77.896,32.096 77.931,32.096 C78.159,32.096 78.359,31.933 78.407,31.709 C78.644,30.605 79.621,29.804 80.73,29.804 C80.898,29.804 81.065,29.822 81.23,29.858 C81.49,29.913 81.753,29.738 81.81,29.481 C81.866,29.217 81.698,28.954 81.435,28.896 C81.205,28.846 80.967,28.82 80.732,28.82 C79.167,28.82 77.788,29.947 77.455,31.498 C77.427,31.626 77.451,31.758 77.522,31.868 L77.522,31.87 Z M78.467,32.963 C78.387,32.711 78.107,32.563 77.853,32.646 C77.73,32.686 77.628,32.772 77.569,32.889 C77.509,33.005 77.499,33.139 77.539,33.263 C77.621,33.525 77.737,33.778 77.882,34.013 C77.952,34.126 78.066,34.207 78.192,34.235 C78.227,34.242 78.262,34.245 78.297,34.245 C78.387,34.245 78.475,34.221 78.553,34.173 C78.663,34.103 78.741,33.995 78.771,33.867 C78.801,33.74 78.781,33.607 78.711,33.497 C78.608,33.327 78.526,33.149 78.466,32.962 L78.467,32.963 Z M88.722,34.464 C88.756,34.471 88.792,34.474 88.825,34.474 C89.053,34.474 89.253,34.314 89.302,34.088 C89.539,32.985 90.516,32.185 91.625,32.185 C91.792,32.185 91.959,32.203 92.123,32.238 C92.38,32.295 92.647,32.121 92.703,31.863 C92.731,31.733 92.706,31.603 92.635,31.491 C92.565,31.381 92.455,31.307 92.329,31.281 C92.096,31.228 91.859,31.203 91.624,31.203 C90.06,31.203 88.682,32.329 88.347,33.881 C88.291,34.145 88.457,34.408 88.721,34.465 L88.722,34.464 Z M89.36,35.342 C89.28,35.09 89.002,34.945 88.748,35.025 C88.492,35.108 88.35,35.385 88.432,35.643 C88.516,35.905 88.632,36.157 88.776,36.393 C88.846,36.507 88.956,36.586 89.088,36.615 C89.122,36.622 89.156,36.627 89.191,36.627 C89.283,36.627 89.371,36.6 89.449,36.553 C89.677,36.41 89.749,36.107 89.607,35.876 C89.504,35.709 89.422,35.529 89.362,35.342 L89.36,35.342 Z" id="Shape" fill="#FFFFFF"></path>
                <path d="M87.65,33.727 C88.057,31.839 89.73,30.469 91.63,30.469 C91.916,30.469 92.203,30.499 92.484,30.559 C94.67,31.039 96.059,33.235 95.581,35.459 C95.176,37.347 93.501,38.716 91.601,38.716 C91.317,38.716 91.031,38.686 90.751,38.624 C89.693,38.394 88.788,37.756 88.201,36.83 C87.617,35.904 87.421,34.803 87.651,33.727 L87.65,33.727 Z M91.236,24.635 C90.601,24.635 90.003,24.835 89.493,25.165 L89.721,24.107 C89.819,23.655 90.218,23.327 90.671,23.327 C90.738,23.327 90.807,23.335 90.873,23.349 C91.203,23.421 91.475,23.669 91.583,23.993 L91.815,24.696 C91.623,24.662 91.43,24.634 91.237,24.634 L91.236,24.635 Z M88.944,27.719 L89.002,27.446 C89.232,26.386 90.17,25.616 91.236,25.616 C91.396,25.616 91.556,25.633 91.714,25.668 C92.486,25.836 93.124,26.412 93.381,27.17 L94.449,30.362 C93.923,29.999 93.329,29.739 92.691,29.599 C92.341,29.524 91.985,29.486 91.631,29.486 C90.367,29.486 89.186,29.976 88.284,30.792 L88.944,27.718 L88.944,27.719 Z M86.684,28.436 C86.734,28.431 86.794,28.428 86.856,28.428 C87.086,28.428 87.41,28.48 87.74,28.675 L87.614,29.259 C87.231,29.079 86.864,29.019 86.588,29.019 L86.558,29.021 L86.684,28.436 L86.684,28.436 Z M81.59,28.181 C83.776,28.659 85.166,30.856 84.688,33.078 C84.281,34.966 82.608,36.338 80.708,36.336 C80.423,36.336 80.136,36.306 79.855,36.244 C77.669,35.766 76.28,33.569 76.757,31.346 C77.163,29.458 78.837,28.088 80.737,28.088 C81.021,28.088 81.307,28.118 81.59,28.18 L81.59,28.181 Z M86.038,26.799 L85.32,30.139 C84.69,28.702 83.424,27.576 81.796,27.221 C81.446,27.144 81.091,27.106 80.736,27.106 C80.446,27.106 80.161,27.132 79.882,27.182 L82.162,24.722 C82.702,24.146 83.535,23.88 84.3,24.049 C85.527,24.317 86.306,25.551 86.038,26.799 L86.038,26.799 Z M86.018,22.289 C86.271,22.344 86.486,22.495 86.626,22.716 C86.766,22.936 86.812,23.201 86.756,23.458 L86.532,24.502 C86.082,23.805 85.402,23.322 84.609,23.122 L85.109,22.578 C85.337,22.33 85.693,22.218 86.019,22.288 L86.018,22.289 Z M96.133,32.326 L94.305,26.856 C94.068,26.154 93.598,25.564 92.998,25.168 L92.506,23.681 C92.29,23.028 91.743,22.531 91.078,22.387 C90.944,22.357 90.806,22.342 90.668,22.342 C89.761,22.342 88.961,22.995 88.768,23.895 L88.05,27.235 L87.952,27.685 C87.558,27.511 87.185,27.45 86.896,27.447 L86.991,27.007 L86.991,27.004 L87.711,23.664 C87.939,22.604 87.273,21.554 86.227,21.326 C85.57,21.182 84.855,21.41 84.395,21.906 L83.328,23.066 C82.618,23.178 81.95,23.514 81.454,24.046 L77.544,28.261 L77.549,28.268 C76.689,28.982 76.054,29.98 75.805,31.136 C75.519,32.466 75.762,33.832 76.488,34.979 C77.215,36.126 78.338,36.916 79.648,37.202 C79.998,37.278 80.355,37.317 80.708,37.317 C83.031,37.317 85.076,35.667 85.616,33.384 L85.62,33.384 L86.343,30.02 C86.409,30.01 86.488,30 86.583,30 C86.795,30 87.097,30.057 87.398,30.26 L86.698,33.512 L86.698,33.519 L86.678,33.616 L86.681,33.616 C86.429,34.916 86.673,36.24 87.381,37.358 C88.109,38.505 89.231,39.295 90.544,39.582 C90.892,39.657 91.249,39.696 91.604,39.696 C93.958,39.696 96.034,38.001 96.534,35.664 C96.781,34.522 96.634,33.356 96.13,32.324 L96.133,32.324 L96.133,32.326 Z M68.06,43.66 L66.187,47.614 L55.977,42.7 L57.85,38.747 C58.555,37.26 60.067,36.345 61.702,36.417 C62.247,36.442 62.775,36.577 63.272,36.815 L66.142,38.197 C67.122,38.669 67.862,39.497 68.224,40.529 C68.587,41.561 68.529,42.673 68.06,43.659 L68.06,43.66 Z M63.214,50.18 L55.866,46.642 C55.572,46.502 55.448,46.146 55.588,45.85 L56.128,44.708 C56.268,44.412 56.621,44.288 56.915,44.428 L64.263,47.965 C64.557,48.105 64.683,48.461 64.543,48.757 L64,49.9 C63.86,50.195 63.508,50.32 63.214,50.18 L63.214,50.18 Z M56.38,68.305 C56.18,68.731 55.746,68.993 55.278,68.973 C55.123,68.966 54.971,68.927 54.828,68.859 L46.72,64.957 C46.44,64.822 46.228,64.584 46.124,64.289 C46.021,63.993 46.037,63.675 46.171,63.392 L51.965,51.167 L52.5,50.039 L53.943,46.992 L64.153,51.905 L56.381,68.305 L56.38,68.305 Z M46.865,55.362 L49.43,49.947 L50.934,50.671 L48.368,56.085 L46.865,55.362 L46.865,55.362 Z M45.163,55.252 L48.263,48.709 C48.413,48.389 48.738,48.195 49.089,48.209 C49.204,48.216 49.317,48.243 49.423,48.295 L51.569,49.328 L51.485,49.504 L51.425,49.631 L49.861,48.879 C49.337,48.629 48.675,48.865 48.428,49.389 L45.803,54.927 C45.548,55.465 45.775,56.113 46.31,56.372 L47.873,57.122 L47.717,57.454 L45.571,56.422 C45.137,56.212 44.953,55.688 45.161,55.252 L45.163,55.252 Z M69.223,39.934 C68.72,38.667 67.706,37.672 66.483,37.084 L63.763,35.774 C63.049,35.432 62.283,35.258 61.491,35.262 C59.451,35.272 57.623,36.555 56.743,38.412 L54.773,42.572 C54.597,42.942 54.753,43.386 55.12,43.562 L55.352,43.675 L54.302,45.889 L54.07,45.777 C53.702,45.6 53.262,45.757 53.087,46.127 L52.062,48.289 L49.917,47.256 C49.671,47.138 49.41,47.072 49.139,47.06 C48.329,47.025 47.581,47.477 47.231,48.214 L44.131,54.756 C43.653,55.766 44.078,56.978 45.081,57.462 L47.226,58.494 L45.176,62.819 C44.946,63.305 44.849,63.859 44.966,64.386 C45.122,65.106 45.583,65.686 46.226,65.996 L54.336,69.896 C54.616,70.034 54.916,70.109 55.226,70.123 C56.154,70.163 57.011,69.646 57.411,68.803 L65.357,52.033 C65.533,51.663 65.377,51.22 65.01,51.043 L64.777,50.93 L65.827,48.717 L66.059,48.829 C66.426,49.005 66.866,48.849 67.042,48.479 L69.09,44.157 C69.723,42.824 69.772,41.315 69.223,39.934 L69.223,39.934 Z" id="Shape" fill="#FFFFFF"></path>
                <path d="M58.34,40.457 C58.056,40.317 57.713,40.441 57.578,40.727 L57.058,41.822 C56.923,42.108 57.044,42.452 57.328,42.588 C57.4,42.623 57.475,42.641 57.55,42.644 C57.772,42.654 57.99,42.534 58.09,42.317 L58.61,41.224 C58.746,40.938 58.625,40.594 58.34,40.457 L58.34,40.457 Z M63.554,37.44 C61.57,36.488 59.184,37.337 58.238,39.337 C58.102,39.623 58.223,39.967 58.508,40.104 C58.578,40.138 58.654,40.156 58.728,40.159 C58.95,40.169 59.168,40.047 59.268,39.831 C59.945,38.405 61.645,37.798 63.062,38.479 C63.348,38.619 63.688,38.494 63.822,38.209 C63.959,37.921 63.838,37.577 63.554,37.439 L63.554,37.44 Z M82.89,44.934 C82.71,44.847 82.518,44.792 82.315,44.772 L78.227,44.377 C76.291,44.19 74.527,45.495 74.123,47.413 L71.143,61.566 C70.796,63.219 71.693,64.888 73.285,65.492 C75.043,66.152 77.005,65.246 77.66,63.474 L83.726,47.044 C84.029,46.224 83.67,45.317 82.89,44.934 L82.89,44.934 Z M72.516,66.324 C70.669,65.419 69.676,63.37 70.104,61.344 L73.084,47.191 C73.599,44.741 75.854,43.073 78.329,43.311 L82.415,43.707 C82.745,43.739 83.061,43.827 83.355,43.972 C84.629,44.598 85.215,46.079 84.721,47.419 L78.655,63.849 C77.795,66.174 75.221,67.363 72.915,66.499 C72.777,66.446 72.645,66.389 72.515,66.326 L72.516,66.324 Z" id="Shape" fill="#FFFFFF"></path>
                <path d="M72.157,53.553 C72.137,53.543 72.117,53.533 72.097,53.519 C71.85,53.355 71.783,53.023 71.945,52.776 C75.098,47.951 80.375,47.566 80.595,47.55 L80.823,47.537 L80.99,47.692 C81.082,47.777 83.236,49.822 82.54,53.312 C82.48,53.602 82.2,53.79 81.913,53.732 C81.629,53.674 81.438,53.392 81.497,53.102 C81.973,50.714 80.851,49.142 80.425,48.647 C79.401,48.782 75.325,49.551 72.832,53.367 C72.682,53.594 72.392,53.669 72.157,53.553 L72.157,53.553 Z M80.397,48.567 C80.167,48.454 80.047,48.189 80.12,47.934 L80.556,46.442 C80.639,46.158 80.936,45.995 81.216,46.079 C81.499,46.162 81.658,46.459 81.576,46.743 L81.14,48.236 C81.057,48.519 80.76,48.682 80.48,48.599 C80.45,48.589 80.423,48.579 80.397,48.566 L80.397,48.567 Z M88.852,47.17 C88.432,46.963 87.937,46.947 87.497,47.124 C87.054,47.304 86.719,47.651 86.551,48.104 L80.486,64.534 C79.834,66.299 80.704,68.274 82.488,68.942 C84.058,69.53 85.848,68.859 86.654,67.382 L93.58,54.71 C94.518,52.992 94.03,50.84 92.442,49.707 L89.092,47.314 C89.015,47.258 88.935,47.211 88.852,47.169 L88.852,47.17 Z M81.716,69.773 C79.641,68.756 78.683,66.343 79.489,64.16 L85.555,47.73 C85.825,46.99 86.375,46.422 87.101,46.13 C87.958,45.784 88.931,45.883 89.707,46.44 L93.057,48.833 C95.084,50.283 95.709,53.031 94.51,55.225 L87.586,67.9 C86.526,69.838 84.176,70.717 82.118,69.946 C81.98,69.894 81.848,69.836 81.718,69.773 L81.716,69.773 Z" id="Shape" fill="#FFFFFF"></path>
                <path d="M90.99,60.615 C90.79,60.517 90.665,60.299 90.695,60.065 C91.283,55.532 88.695,52.265 88.009,51.49 C87.362,51.582 85.502,52.024 84.309,54.156 C84.164,54.413 83.835,54.499 83.585,54.359 C83.33,54.213 83.239,53.886 83.383,53.629 C85.119,50.529 88.075,50.399 88.201,50.396 L88.427,50.388 L88.589,50.548 C88.749,50.705 92.491,54.472 91.749,60.201 C91.709,60.494 91.444,60.701 91.153,60.663 C91.093,60.656 91.039,60.638 90.989,60.613 M87.986,51.413 C87.726,51.287 87.616,50.975 87.736,50.71 L88.374,49.293 C88.494,49.023 88.811,48.905 89.078,49.027 C89.356,49.15 89.463,49.467 89.342,49.737 L88.702,51.153 C88.582,51.423 88.266,51.543 87.999,51.42 L87.985,51.413" id="Shape" fill="#FFFFFF"></path>
                <g transform="translate(75.000000, 80.000000)" id="Shape" fill="#FF5600">
                    <path d="M19.59,30.258 C16.406,28.781 12.677,25.193 9.535,17.804 C14.435,15.229 18.835,10.121 20.972,4.168 C21.768,1.973 15.819,0.538 15.735,1.93 C15.651,4 13.012,9.403 9.495,12.653 C10.373,9.361 11.127,6.533 11.462,5.138 C11.922,2.352 8.53,0.328 3,0.918 C1.575,1.34 1.366,5.012 2.204,5.561 C5.304,5.267 6.728,5.267 6.1,7.546 C5.722,9.151 0.99,27.262 0.57,29.076 C0.528,30.133 4.09,31.146 4.8,29.796 C5.01,28.951 5.932,25.573 6.98,21.774 C8.78,26.164 12.886,31.864 16.028,33.384 C17.411,33.89 20.972,30.894 19.588,30.259 M24.908,12.907 C26.374,13.625 28.175,13.077 28.678,11.514 C29.098,10.079 28.385,9.024 27.548,8.684 C27.756,8.432 27.798,8.052 27.631,7.672 C25.705,6.658 24.029,7.63 23.443,9.15 C22.898,10.585 23.443,12.23 24.909,12.907"></path>
                    <path d="M43.41,5.18 C42.738,5.223 41.565,5.307 40.267,5.35 C40.56,4.463 40.769,3.788 40.854,3.492 C40.937,2.479 39.722,1.719 38.759,1.424 C37.794,1.086 36.202,0.874 35.951,1.594 C35.783,2.099 35.364,3.619 34.736,5.688 C33.102,5.772 31.846,5.858 31.552,5.858 C30.128,5.941 31.51,9.065 32.6,9.278 C32.797,9.308 33.073,9.343 33.404,9.375 C30.58,18.735 27.638,23.67 27.638,23.67 C25.698,26.577 23.198,26.504 24.153,23.42 C24.866,21.054 26.541,16.495 26.961,15.355 C27.003,14.3 25.831,13.582 24.867,13.245 C23.861,12.907 22.479,12.738 22.144,13.455 C21.724,14.258 19.672,21.265 19.294,23.673 C18.624,27.093 19.337,29.541 21.39,30.216 C23.693,31.018 26.524,30.376 28.8,26.524 C29.176,26.007 29.567,25.311 29.948,24.531 C29.553,27.498 30.305,29.601 32.181,30.217 C34.487,31.019 36.331,29.415 37.921,27.262 C38.843,25.997 39.933,23.632 40.687,21.522 C40.98,20.424 39.179,19.705 38.592,20.762 C38.175,21.732 37.755,22.662 37.295,23.506 C35.325,27.306 34.278,26.926 34.948,23.422 C35.325,21.394 37.211,15.02 38.886,9.742 C39.766,9.785 40.52,9.785 40.939,9.785 C42.405,9.743 45.966,5.015 43.411,5.183"></path>
                </g>
                <g transform="translate(0.000000, 80.000000)" id="Shape" fill="#626161">
                    <path d="M17.83,3.28 C16.783,7.46 11.84,25.783 9.954,29.498 C9.242,30.848 6.854,30.638 5.849,29.414 C2.413,25.404 -1.316,12.654 1.952,3.408 C3.335,-0.392 8.11,0.833 6.812,3.83 C5.01,7.883 3.586,17.044 7.482,23.842 C9.158,17.972 12.3,5.012 12.97,2.142 C13.557,-0.308 18.375,1.086 17.83,3.282 L17.83,3.28 Z M20.825,19.112 C20.448,20.462 19.988,22.068 19.527,23.462 C18.479,26.839 20.825,27.134 22.082,23.884 C22.375,23.166 23.297,20.168 23.422,19.662 C23.967,17.424 21.747,16.412 20.825,19.112 L20.825,19.112 Z M33.058,21.645 C32.304,23.715 31.172,25.995 30.251,27.303 C28.661,29.456 26.859,30.893 24.513,30.258 C23.298,29.963 22.503,28.612 22.333,27.641 C20.868,29.921 19.36,30.766 17.265,30.344 C15.171,29.921 13.83,27.854 14.668,23.716 C15.003,21.731 15.673,19.198 16.176,17.426 C18.103,11.388 23.676,12.528 24.68,15.146 C24.847,14.47 25.014,13.879 25.14,13.456 C25.392,12.739 26.983,12.95 27.99,13.288 C28.952,13.626 30.125,14.343 30.084,15.398 C29.664,16.538 27.989,21.098 27.277,23.462 C26.229,26.842 27.654,27.348 29.623,23.547 C30.043,22.703 30.503,21.775 30.921,20.803 C31.509,19.749 33.351,20.551 33.059,21.648 L33.058,21.645 Z"></path>
                    <path d="M44.995,21.645 C44.199,23.715 43.109,25.91 42.272,27.218 C38.628,33.128 28.07,30.68 30.082,21.308 C30.584,19.028 31.924,16.2 33.349,14.468 C35.569,12.274 40.929,12.948 41.726,14.258 C42.481,15.44 41.684,19.408 40.176,20.97 C39.046,21.73 37.16,21.223 36.993,20.21 C38.083,18.69 38.668,16.453 38.083,16.158 C37.076,15.988 35.693,17.846 34.689,21.604 C33.306,26.839 38.669,29.414 41.559,23.504 C41.979,22.66 42.439,21.774 42.815,20.801 C43.445,19.747 45.245,20.549 44.995,21.646"></path>
                    <path d="M48.22,19.112 C47.842,20.462 47.38,22.068 46.92,23.462 C45.873,26.839 48.22,27.134 49.476,23.884 C49.769,23.166 50.691,20.168 50.816,19.662 C51.361,17.424 49.141,16.412 48.219,19.112 L48.22,19.112 Z M60.452,21.645 C59.698,23.715 58.567,25.995 57.645,27.303 C56.053,29.456 54.251,30.893 51.905,30.258 C50.691,29.963 49.895,28.612 49.727,27.641 C48.261,29.921 46.753,30.766 44.657,30.344 C42.564,29.921 41.223,27.854 42.061,23.716 C42.397,21.731 43.067,19.198 43.571,17.426 C45.497,11.388 51.068,12.528 52.074,15.146 C52.242,14.47 52.41,13.879 52.534,13.456 C52.786,12.739 54.378,12.95 55.384,13.288 C56.347,13.626 57.52,14.343 57.478,15.398 C57.058,16.538 55.384,21.098 54.672,23.462 C53.626,26.842 55.05,27.348 57.019,23.547 C57.437,22.703 57.899,21.775 58.317,20.803 C58.904,19.749 60.747,20.551 60.454,21.648 L60.452,21.645 Z"></path>
                    <path d="M62.46,32.242 C61.413,33.045 60.45,34.015 59.78,34.818 C59.36,35.324 58.774,36.338 59.277,36.126 C60.492,35.156 61.539,33.846 62.461,32.242 L62.46,32.242 Z M76.118,21.942 C74.442,26.796 71.258,28.907 68.578,29.752 C68.535,29.752 68.493,29.752 68.451,29.794 C68.411,29.836 68.411,29.879 68.411,29.92 C65.939,35.24 62.713,38.66 59.151,39.293 C57.853,39.546 56.051,39.336 55.675,38.153 C54.837,35.703 56.805,32.158 61.288,30.301 C61.121,30.301 60.954,30.259 60.828,30.259 C58.733,29.837 56.555,27.769 57.393,23.631 C57.77,21.224 59.823,14.217 60.241,13.414 C60.618,12.697 62.001,12.866 62.964,13.204 C63.928,13.541 65.101,14.259 65.059,15.314 C64.682,16.454 63.006,21.014 62.252,23.378 C61.206,26.755 64.515,27.135 65.647,23.798 C66.861,20.296 67.574,15.018 67.699,14.048 C67.741,11.853 72.936,13.414 72.727,15.23 C72.517,16.538 71.553,22.785 69.752,26.67 C69.752,26.712 69.752,26.754 69.71,26.796 C71.72,26.036 72.936,23.842 73.857,21.604 C74.779,19.408 76.664,20.506 76.12,21.941 L76.118,21.942 Z"></path>
                </g>
            </g>
        </g>
    </g>
</svg>