<?xml version="1.0" encoding="UTF-8" standalone="no"?>
<svg width="75px" height="75px" viewBox="0 0 75 75" version="1.1" xmlns="http://www.w3.org/2000/svg" xmlns:xlink="http://www.w3.org/1999/xlink" xmlns:sketch="http://www.bohemiancoding.com/sketch/ns">
    <!-- Generator: Sketch Beta 3.3.2 (12041) - http://www.bohemiancoding.com/sketch -->
    <title>Slice 1</title>
    <desc>Created with Sketch Beta.</desc>
    <defs></defs>
    <g id="Page-1" stroke="none" stroke-width="1" fill="none" fill-rule="evenodd" sketch:type="MSPage">
        <rect id="Rectangle-1" sketch:type="MSShapeGroup" x="0" y="0" width="75" height="75"></rect>
        <g id="Group" sketch:type="MSLayerGroup" transform="translate(9.000000, 13.000000)">
            <path d="M24.6757812,44.2119141 L15.4023438,35.1123047 L8.69433594,22.8818359 L5.45507812,17.1630859 L2.39941406,11.6191406 L6.56347656,6.49804688 L16.5214844,7.71582031 L44.9951172,7.72753906 L52.2900391,7.22753906 L55.8447266,13.6416016 L47.1582031,20.7734375 L39.9609375,37.7001953 L34.9169922,43.5273438 L26.078125,45.2675781 L24.6757812,44.2119141 Z" id="Path-12" fill="#FFFFFF" sketch:type="MSShapeGroup"></path>
            <ellipse id="Oval" fill="#795929" sketch:type="MSShapeGroup" cx="26.0458333" cy="30.48" rx="1.58333333" ry="2.24"></ellipse>
            <ellipse id="Oval" fill="#795929" sketch:type="MSShapeGroup" cx="30.9541667" cy="30.48" rx="1.58333333" ry="2.24"></ellipse>
            <path d="M22.8,38.64 C22.9583333,40.08 25.4916667,41.2 28.5,41.2 C31.5083333,41.2 33.9625,40.08 34.2,38.64 C32.9333333,39.28 30.875,39.76 28.5,39.76 C26.125,39.76 24.0666667,39.28 22.8,38.64 L22.8,38.64 Z" id="Shape" fill="#795929" sketch:type="MSShapeGroup"></path>
            <path d="M56.6041667,13.04 C56.6041667,8.56 52.9625,4.88 48.5291667,4.88 C46.7083333,4.88 45.0458333,5.52 43.7,6.48 C39.7416667,2.64 34.4375,0.32 28.5,0.32 C22.5625,0.32 17.2583333,2.64 13.3,6.48 C11.9541667,5.44 10.2916667,4.88 8.47083333,4.88 C4.0375,4.88 0.395833333,8.56 0.395833333,13.04 C0.395833333,16.88 3.00833333,20.16 6.57083333,20.96 C6.57083333,21.44 6.49166667,22 6.49166667,22.48 C6.49166667,31.12 11.4,38.64 18.525,42.24 C20.0291667,45.36 23.9083333,47.6 28.4208333,47.6 C32.9333333,47.6 36.8125,45.36 38.3166667,42.24 C45.4416667,38.56 50.35,31.12 50.35,22.48 C50.35,21.92 50.35,21.44 50.2708333,20.96 C53.9916667,20.08 56.6041667,16.88 56.6041667,13.04 L56.6041667,13.04 Z M7.125,17.36 C5.30416667,16.8 3.95833333,15.04 3.95833333,13.04 C3.95833333,10.56 5.9375,8.48 8.47083333,8.48 C9.34166667,8.48 10.2125,8.72 10.925,9.2 C9.18333333,11.6 7.8375,14.4 7.125,17.36 L7.125,17.36 Z M45.2833333,24.16 C44.65,26.88 42.8291667,29.28 40.6125,30.8 C39.9791667,31.2 39.3458333,31.6 38.7916667,32.08 C36.4958333,34.32 37.2875,38.4 35.4666667,41.12 C34.2,43.04 31.825,43.76 29.6083333,44 L29.6083333,44 C29.2916667,44 28.8958333,44 28.5791667,44 L28.5,44 L28.4208333,44 C28.1041667,44 27.7875,44 27.3916667,43.92 L27.3916667,43.92 C25.175,43.68 22.8,42.96 21.5333333,41.04 C19.7125,38.4 20.5041667,34.24 18.2083333,32 C17.6541667,31.52 17.0208333,31.12 16.3875,30.72 C14.0916667,29.2 12.35,26.8 11.7166667,24.08 C11.0833333,21.36 11.6375,18.32 13.3791667,16.16 C14.6458333,14.56 16.5458333,13.52 18.525,13.04 C20.7416667,12.48 23.1958333,12.48 25.4125,13.12 C26.6,13.44 27.7875,14 28.5,15.04 C29.2125,14 30.4,13.44 31.5875,13.12 C33.8041667,12.48 36.2583333,12.48 38.475,13.04 C40.4541667,13.52 42.275,14.56 43.6208333,16.16 C45.3625,18.4 45.9166667,21.44 45.2833333,24.16 L45.2833333,24.16 Z M49.875,17.36 C49.1625,14.4 47.8958333,11.6 46.075,9.2 C46.7875,8.72 47.6583333,8.48 48.5291667,8.48 C50.9833333,8.48 53.0416667,10.48 53.0416667,13.04 C53.0416667,15.04 51.6958333,16.8 49.875,17.36 L49.875,17.36 Z" id="Shape" fill="#795929" sketch:type="MSShapeGroup"></path>
            <path d="M37.6041667,18.08 C35.4666667,18.08 33.8041667,19.84 33.8041667,21.92 C33.8041667,24.08 35.5458333,25.76 37.6041667,25.76 C39.7416667,25.76 41.4041667,24 41.4041667,21.92 C41.4041667,19.76 39.7416667,18.08 37.6041667,18.08 L37.6041667,18.08 Z M36.8125,22.4 C36.2583333,22.4 35.8625,21.92 35.8625,21.44 C35.8625,20.88 36.3375,20.48 36.8125,20.48 C37.3666667,20.48 37.7625,20.96 37.7625,21.44 C37.8416667,22 37.3666667,22.4 36.8125,22.4 L36.8125,22.4 Z M38.95,23.52 C38.6333333,23.52 38.3166667,23.2 38.3166667,22.88 C38.3166667,22.56 38.6333333,22.24 38.95,22.24 C39.2666667,22.24 39.5833333,22.56 39.5833333,22.88 C39.5833333,23.2 39.3458333,23.52 38.95,23.52 L38.95,23.52 Z" id="Shape" fill="#795929" sketch:type="MSShapeGroup"></path>
            <path d="M19.3958333,18.08 C17.2583333,18.08 15.5958333,19.84 15.5958333,21.92 C15.5958333,24.08 17.3375,25.76 19.3958333,25.76 C21.5333333,25.76 23.1958333,24 23.1958333,21.92 C23.1958333,19.76 21.5333333,18.08 19.3958333,18.08 L19.3958333,18.08 Z M18.6041667,22.4 C18.05,22.4 17.6541667,21.92 17.6541667,21.44 C17.6541667,20.88 18.1291667,20.48 18.6041667,20.48 C19.1583333,20.48 19.5541667,20.96 19.5541667,21.44 C19.6333333,22 19.1583333,22.4 18.6041667,22.4 L18.6041667,22.4 Z M20.7416667,23.52 C20.425,23.52 20.1083333,23.2 20.1083333,22.88 C20.1083333,22.56 20.425,22.24 20.7416667,22.24 C21.0583333,22.24 21.375,22.56 21.375,22.88 C21.375,23.2 21.0583333,23.52 20.7416667,23.52 L20.7416667,23.52 Z" id="Shape" fill="#795929" sketch:type="MSShapeGroup"></path>
        </g>
    </g>
</svg>