<?xml version="1.0" encoding="UTF-8" standalone="no"?>
<svg width="162px" height="162px" viewBox="0 0 162 162" version="1.1" xmlns="http://www.w3.org/2000/svg" xmlns:xlink="http://www.w3.org/1999/xlink" xmlns:sketch="http://www.bohemiancoding.com/sketch/ns">
    <!-- Generator: Sketch Beta 3.3.2 (12041) - http://www.bohemiancoding.com/sketch -->
    <title>Slice 1</title>
    <desc>Created with Sketch Beta.</desc>
    <defs></defs>
    <g id="Page-1" stroke="none" stroke-width="1" fill="none" fill-rule="evenodd" sketch:type="MSPage">
        <rect id="Rectangle-1" sketch:type="MSShapeGroup" x="0" y="0" width="162" height="162"></rect>
        <g id="kitesurfing-21" sketch:type="MSLayerGroup" transform="translate(9.000000, 11.000000)" stroke-width="4.2" stroke="#FFFFFF">
            <g id="Group" sketch:type="MSShapeGroup">
                <g transform="translate(10.000000, 0.000000)">
                    <g transform="translate(23.000000, 17.000000)">
                        <circle id="Oval" cx="77.9" cy="8.8" r="8.5"></circle>
                        <path d="M84.3,28.2 L84.3,28.2 C84.7,25.5 82.6,23 79.9,22.8 L66.7,22 C64.9,21.9 63.2,21 62.1,19.6 L50.7,5.6 C49.4,3.9 46.9,3.8 45.3,5.2 L45.3,5.2 C43.9,6.5 43.7,8.6 44.8,10.1 L54.8,24.1 C57.7,28.1 62.2,30.7 67.1,31.2 L73.6,31.8" id="Shape"></path>
                        <path d="M67.1,31.2 C62.2,30.7 57.7,28.1 54.8,24.1 L44.8,10.1 C44.3,9.3 44,8.4 44.1,7.5 C42.7,6.6 40.8,6.6 39.5,7.8 C38.1,9.1 37.9,11.2 39,12.7 L49,26.7 C51.9,30.7 56.4,33.3 61.3,33.8 L64.2,34.1" id="Shape"></path>
                        <path d="M65.7,31 C65.7,31 65.3,38.3 59.5,44.1 C54.7,49 39.8,51.8 31,53.2 C28.1,53.7 25.4,54.8 23,56.4 L1.8,71.2 C-0.1,72.6 -0.6,75.3 0.9,77.1 L0.9,77.1 C2.2,78.8 4.7,79.2 6.5,78 L28.5,63.2 C28.5,63.2 31.2,61.3 35.6,60" id="Shape"></path>
                        <path d="M51.6,55.3 L36.7,59.6 C34.1,60.3 32.1,62.1 31.1,64.6 L22.5,87.2 C21.5,89.7 22.8,92.6 25.4,93.5 L25.4,93.5 C27.9,94.4 30.7,93.2 31.7,90.6 L39.7,69.3 C40.2,68 41.4,67 42.8,66.7 L57,64.2 C64.4,62.9 71,58.5 75.1,52.2 C79.5,45.3 84.3,36.1 84.3,28" id="Shape"></path>
                    </g>
                    <path d="M30.7,0.8 L47,30.9" id="Shape"></path>
                    <path d="M53.4,0.8 L64.7,21.7" id="Shape"></path>
                    <path d="M76.9,0.8 L83,12.2" id="Shape"></path>
                    <g transform="translate(42.000000, 10.000000)" id="Shape">
                        <path d="M25.1,15.2 L25.1,15.4 L25.1,15.2 L25.1,15.2 Z"></path>
                        <path d="M20.5,14.9 C21.8,13.7 23.7,13.7 25,14.6 L25,14.8 C25,13.9 25.4,12.9 26.2,12.3 L26.2,12.3 C27.8,10.9 30.2,11.1 31.5,12.7 L31.8,13.1 L46.3,5.5 C47.6,4.8 48.1,3.2 47.4,1.9 C46.7,0.6 45.1,0.1 43.8,0.8 L1.6,22.7 C0.3,23.4 -0.2,25 0.5,26.3 C1.2,27.6 2.8,28.1 4.1,27.4 L19.8,19.2 C19,17.8 19.3,16 20.5,14.9 L20.5,14.9 Z"></path>
                        <path d="M25.3,16.1 C25.3,16 25.2,15.9 25.2,15.8 C25.2,15.9 25.2,16 25.3,16.1 L25.3,16.1 Z"></path>
                    </g>
                    <path d="M58.9,96.6 C66.1,104 73.9,113.1 82.3,124.3 C82.3,124.3 52.8,112.8 27.6,115.6 C27.6,115.6 5.1,94.1 0.9,69.8 L10.2,63.6 C10.2,63.6 20.7,64.8 38.6,78.4" id="Shape"></path>
                    <path d="M45.6,84.1 C47.5,85.7 49,87.1 51.1,89" id="Shape"></path>
                </g>
                <path d="M0.5,137.9 C0.5,137.9 28.3,113.1 75.7,127.9 C123,142.7 132.2,135.7 143.5,129.1" id="Shape"></path>
            </g>
        </g>
    </g>
</svg>