<?xml version="1.0" encoding="UTF-8" standalone="no"?>
<svg width="118px" height="118px" viewBox="0 0 118 118" version="1.1" xmlns="http://www.w3.org/2000/svg" xmlns:xlink="http://www.w3.org/1999/xlink" xmlns:sketch="http://www.bohemiancoding.com/sketch/ns">
    <!-- Generator: Sketch Beta 3.3.2 (12041) - http://www.bohemiancoding.com/sketch -->
    <title>Slice 1</title>
    <desc>Created with Sketch Beta.</desc>
    <defs></defs>
    <g id="Page-1" stroke="none" stroke-width="1" fill="none" fill-rule="evenodd" sketch:type="MSPage">
        <g id="komodo_dragon" sketch:type="MSLayerGroup">
            <path d="M103.383157,69.890723 L103.383157,67.7177165 L102.352161,66.732884 L102.335673,64.8577454 L101.18487,63.7728909 L101.18487,62.0966971 L100.085727,60.616151 L100.085727,58.6409902 L98.986583,57.0626203 L98.986583,54.9896358 L97.8874397,54.101528 L97.8874397,52.1285655 L96.7882963,51.3371823 L96.7882963,50.2523277 L96.7882963,49.1685724 L96.7882963,47.8847728 L94.5900094,46.7999183 L94.5900094,45.418295 L92.3917227,45.2204492 L92.3917227,43.5442555 L92.3917227,43.0496411 L92.3917227,41.9647865 L90.1934358,41.6680178 L90.1934358,40.3864165 L89.0942924,40.0896478 L89.0942924,38.6091016 L87.995149,38.1155863 L87.995149,37.0307317 L86.416779,36.8405799 L85.6319907,36.5504061 L84.6460591,36.5504061 L84.1536428,34.4224644 L82.8709424,34.3059552 L82.0806583,33.2529758 L81.1914514,33.2529758 L80.1065967,31.054689 L78.6260506,31.054689 L77.3433503,29.9555456 L76.0606499,29.9555456 L74.9757953,29.1509726 L73.9898637,29.5884317 L72.90391,28.8201305 L70.9309476,29.0267694 L69.7460711,28.2430802 L68.5622936,28.5420472 L67.6741857,27.6561376 L66.48821,27.9529063 L65.599003,27.1670188 L63.8183906,27.8594791 L62.5301945,27.1758119 L60.8408111,27.8287031 C55.5110647,27.3824509 47.3949898,28.8915748 47.3949898,28.8915748 C44.4349966,27.4121278 39.5108341,28.9432345 39.5108341,28.9432345 C30.9858779,24.9962106 23.0709462,33.6849392 23.0709462,33.6849392 C-1.10471299,37.1384477 7.48069616,49.3840045 7.48069616,49.3840045 C7.48069616,49.3840045 19.1250214,53.9047813 27.5455591,51.7999217 C35.9660967,49.6950621 39.386631,49.365319 45.833107,50.023706 C45.833107,50.023706 41.4607145,50.1182322 35.899049,51.1426339 C33.2490142,51.6295545 29.729557,52.4220368 26.6233777,53.036458 C16.2210845,55.0918562 10.3593527,52.4022522 7.70602056,50.5446999 C10.2824127,58.4937051 33.2786911,62.0659211 40.6451501,63.0122835 C48.0918467,63.0034904 54.8361907,62.5968073 60.1769285,63.3782983 C76.4684321,65.759043 83.1995863,71.0085519 83.1995863,71.0085519 C75.6012079,68.5948329 67.5653705,65.5205288 60.1747302,64.8236719 C52.3334412,64.0861467 46.6981329,63.6332996 42.9500539,63.3596129 C45.3593763,68.0375672 52.477429,69.6939764 52.477429,69.6939764 C52.3037643,71.3503855 53.4391795,74.933593 53.7051721,75.7425625 C66.3925844,84.5038346 78.9228193,75.0204253 78.9228193,75.0204253 C67.7764061,85.8722682 57.8874128,79.8610529 53.6359261,76.1734267 C49.4591811,84.8874356 51.2936515,89.7236666 51.2936515,89.7236666 C53.1687901,106.202025 90.0736292,96.6317829 90.0736292,96.6317829 C99.0536308,94.264228 100.928769,85.579896 100.928769,85.579896 C103.692016,82.0296627 110,81.2382796 110,81.2382796 L103.383157,69.890723 L103.383157,69.890723 Z M13.1379873,42.0659077 C12.507079,39.416972 16.5585215,41.3393739 16.5585215,41.3393739 C16.5585215,41.3393739 13.795275,44.8258568 13.1379873,42.0659077 L13.1379873,42.0659077 L13.1379873,42.0659077 Z M43.2995815,36.8328859 C41.2287953,36.8328859 39.5493042,35.9381832 39.5493042,34.8335441 C39.5493042,33.8662978 40.8364011,33.0595266 42.5477675,32.8737714 C42.8148592,33.1650444 44.4185095,35.0489762 43.2995815,36.8328859 C43.2995815,36.8328859 45.4835795,35.7304451 44.9691804,33.0441386 C46.2013201,33.3705842 47.0498588,34.0487557 47.0498588,34.8335441 C47.0498588,35.9381832 45.3703676,36.8328859 43.2995815,36.8328859 L43.2995815,36.8328859 L43.2995815,36.8328859 Z M63.8139941,49.7610107 L61.0496483,51.4383035 C61.0496483,51.4383035 60.5165638,45.0237026 63.8139941,43.148564 L63.8139941,49.7610107 L63.8139941,49.7610107 Z M92.7368537,67.7177165 C87.4071073,58.4442436 69.6471481,55.6809971 69.6471481,55.6809971 C70.5011825,55.6809971 87.2103606,55.4183018 92.6060556,65.2182644 C95.092318,69.7346446 96.4673464,73.0584543 98.1973981,75.2204694 C99.928549,77.379187 102.012525,78.3772092 102.012525,78.3772092 C99.2492783,78.3772092 98.0655009,76.9966851 92.7368537,67.7177165 L92.7368537,67.7177165 L92.7368537,67.7177165 Z" id="Shape" fill="#FFFFFF" sketch:type="MSShapeGroup"></path>
            <rect id="Rectangle-2" fill-opacity="0" fill="#D8D8D8" sketch:type="MSShapeGroup" x="0" y="0" width="118" height="118"></rect>
        </g>
    </g>
</svg>