<?xml version="1.0" encoding="utf-8"?>
<!-- Generator: Adobe Illustrator 18.0.0, SVG Export Plug-In . SVG Version: 6.00 Build 0)  -->
<!DOCTYPE svg PUBLIC "-//W3C//DTD SVG 1.1//EN" "http://www.w3.org/Graphics/SVG/1.1/DTD/svg11.dtd">
<svg version="1.1" id="Layer_1" xmlns="http://www.w3.org/2000/svg" xmlns:xlink="http://www.w3.org/1999/xlink" x="0px" y="0px"
	 viewBox="0 0 164 164" enable-background="new 0 0 164 164" xml:space="preserve">
<g>
	<path fill="#FFFFFF" d="M54.1,68.8l22,8.4C71.1,61.4,54.1,68.8,54.1,68.8z"/>
	<path fill="#FFFFFF" d="M54.1,71.4c8.3,16.7,21.4,7.7,21.4,7.7L54.1,71.4z"/>
	<path fill="#FFFFFF" d="M86,77.2l22-8.4C108,68.8,91.1,61.4,86,77.2z"/>
	<path fill="#FFFFFF" d="M108,71.4l-21.4,7.7C86.7,79.1,99.7,88.1,108,71.4z"/>
	<path fill="#FFFFFF" d="M87.6,120.2c-3.9-0.5-5.6,1.3-5.6,1.3s-1.8-1.7-5.6-1.3s-5.2,4.6-5.2,4.6H82h10.8
		C92.8,124.9,91.5,120.7,87.6,120.2z"/>
	<path fill="#FFFFFF" d="M71.6,128.1c3,7,10.4,6.4,10.4,6.4s7.5,0.6,10.4-6.4H82H71.6z"/>
	<path fill="#FFFFFF" d="M55.2,125.3c-3.7,0-6.7,3-6.7,6.7s3,6.7,6.7,6.7s6.7-3,6.7-6.7S58.9,125.3,55.2,125.3z M55.2,134.5
		c-1.4,0-2.5-1.1-2.5-2.5s1.1-2.5,2.5-2.5s2.5,1.1,2.5,2.5S56.6,134.5,55.2,134.5z"/>
	<path fill="#FFFFFF" d="M125.4,64.9c-1.7-1.9-4.3-2.9-7.6-2.9c-0.1,0-0.3,0-0.4,0c1.2-11.7-0.3-21.5-4.3-29.1c0,0,0-0.1-0.1-0.1
		c-1.2-2.3-2.7-4.5-4.4-6.4c-10-11.4-24.9-11.7-26.5-11.7l-0.2,0l-0.2,0c-1.7,0-16.6,0.3-26.6,11.7c-1.8,2-3.3,4.3-4.6,6.8
		c0,0,0,0.1-0.1,0.1c-3.8,7.6-5.2,17.2-4,28.8c-0.1,0-0.2,0-0.4,0c-3.3,0-5.9,1-7.6,2.9c-1.6,1.8-2.2,4.4-1.9,7.5
		c0.5,3.9,2.4,9,4.4,14.4c3.5,9.1,7.4,19.5,5.1,26.1c-0.4,1.1-0.8,2.2-1.1,3.2c-3.5,9.9-6,17.1-0.5,25c2.4,3.5,6.1,5.5,10.2,5.5
		c0,0,0,0,0,0c4.2,0,8.6-2.1,11.2-5.6c2.4,5,7.4,8.3,13.1,8.3h4.3c6,0,11.3-3.6,13.5-9.1c2.5,4.3,7.2,6.7,11.7,6.7
		c4.3,0,8.2-2.1,10.7-5.7c5.5-7.9,2.9-15.1-0.5-25c-0.4-1-0.7-2.1-1.1-3.2c-2.3-6.6,1.6-17,5.1-26.1c2-5.4,4-10.5,4.4-14.4
		C127.6,69.2,127,66.7,125.4,64.9z M53.8,36.1c3.8-0.2,16.6-0.2,26.9,7.5c0.4,0.3,0.8,0.4,1.3,0.4c0.5,0,1-0.2,1.4-0.5
		c0.1-0.1,11-9.2,26.5-7.8c0.9,1.9,1.6,3.9,2.2,6.1c-15-2.5-26.2,7.9-30.2,12.2c-13-12.7-25.1-12.9-30.1-12.3
		C52.4,39.8,53,37.9,53.8,36.1z M81.8,18.8l0.1,0c0,0,0.1,0,0.1,0l0.1,0c1.5,0,14.6,0.3,23.4,10.3c0.6,0.7,1.2,1.5,1.8,2.3
		c-12.8-0.3-22.1,5.5-25.4,7.9c-9.4-6.4-20.1-7.4-25.7-7.4c0.7-1,1.4-1.9,2.1-2.8C67.1,19.1,80.3,18.8,81.8,18.8z M54.8,142.5
		c-1.9,0-4.7-0.6-6.8-3.7c-4.2-6.1-2.2-11.8,1.1-21.2c0.4-1.1,0.8-2.1,1.1-3.3c2.8-8.1-1.4-19.2-5.1-29c-1.9-5.1-3.8-10-4.2-13.4
		c-0.2-1.9,0-3.4,0.8-4.3c1.1-1.2,3-1.4,4.5-1.4c0.3,0,0.7,0,1,0c0.3,1.7,0.7,3.6,1.1,5.5c4.6,22.9,9.6,40.6,13.3,53.8
		c0.4,1.5,0.8,2.9,1.2,4.3c0.7,2.5,1.2,4.2,1.3,4.9C63.8,139.3,59.1,142.5,54.8,142.5z M93.4,137.9c-1.4,4.4-5.3,7.3-9.9,7.3h-4.3
		c-4.8,0-8.9-3.2-10.1-7.8c-0.3-1.1-0.6-2.2-0.9-3.4c0,0,0,0,0,0c0,0,0,0,0,0c-0.4-1.6-0.9-3.4-1.4-5.2
		c-3.1-11.3-10.4-38.6-14.3-57.5C52,68.9,51.5,66.5,51,64c-0.9-6.6-0.9-12.6-0.1-17.8c1.9-0.4,15.1-2.7,29.5,12.4
		c0.4,0.4,0.9,0.7,1.5,0.7c0,0,0.1,0,0.1,0c0.6,0,1.2-0.3,1.6-0.8c0.1-0.2,12.5-16,29.4-12.1c0.4,2.6,0.6,5.4,0.6,8.4
		c-5.1-0.5-17.5-0.7-26.3,6.7c-6.1,5.1-9.2,12.8-9.2,22.9v18.3c0,0.6,0.3,1.2,0.7,1.6s1,0.6,1.6,0.5c0,0,4-0.4,6.4,1.8
		c0.9,0.8,1.4,1.8,1.7,3.1H72.7c-1.2,0-2.1,0.9-2.1,2.1s0.9,2.1,2.1,2.1h18.2c1.2,0,2.1-0.9,2.1-2.1c0-3.6-1.1-6.4-3.3-8.4
		c-2.3-2.1-5.3-2.7-7.3-2.8V84.3c0-8.8,2.6-15.4,7.7-19.7c7.7-6.4,19.1-6.1,23.5-5.7c-0.1,1.7-0.3,3.4-0.5,5.1
		c-0.4,2.2-0.8,4.3-1.3,6.5c-3.4,16.3-9.7,39.1-13.5,52.2c-0.9,2.9-1.8,5.6-2.5,8.1C94.8,133.3,94.1,135.7,93.4,137.9z M123.1,71.9
		c-0.4,3.4-2.3,8.3-4.2,13.4c-3.7,9.8-7.9,20.9-5.1,29c0.4,1.1,0.8,2.2,1.1,3.3c3.3,9.4,5.3,15.1,1.1,21.2c-1.7,2.5-4.3,3.9-7.2,3.9
		c-4.4,0-9-3.3-9.4-8.9c0.3-1.1,1.4-4.8,2.9-10c4.1-13.1,9.1-30.5,13.6-52.7c0.4-1.7,0.7-3.4,1-4.9c0.3,0,0.6,0,1,0
		c1.4,0,3.4,0.3,4.5,1.4C123,68.5,123.3,70,123.1,71.9z"/>
	<path fill="#FFFFFF" d="M102.1,132c0,3.7,3,6.7,6.7,6.7s6.7-3,6.7-6.7s-3-6.7-6.7-6.7S102.1,128.3,102.1,132z M111.3,132
		c0,1.4-1.1,2.5-2.5,2.5s-2.5-1.1-2.5-2.5s1.1-2.5,2.5-2.5S111.3,130.6,111.3,132z"/>
</g>
</svg>
