<?xml version="1.0" encoding="UTF-8" standalone="no"?>
<svg width="75px" height="75px" viewBox="0 0 75 75" version="1.1" xmlns="http://www.w3.org/2000/svg" xmlns:xlink="http://www.w3.org/1999/xlink" xmlns:sketch="http://www.bohemiancoding.com/sketch/ns">
    <!-- Generator: Sketch Beta 3.3.2 (12041) - http://www.bohemiancoding.com/sketch -->
    <title>Slice 1</title>
    <desc>Created with Sketch Beta.</desc>
    <defs></defs>
    <g id="Page-1" stroke="none" stroke-width="1" fill="none" fill-rule="evenodd" sketch:type="MSPage">
        <rect id="Rectangle-1" sketch:type="MSShapeGroup" x="0" y="0" width="75" height="75"></rect>
        <g id="Group" sketch:type="MSLayerGroup" transform="translate(14.000000, 12.000000)" fill="#FFFFFF">
            <path d="M39.9,6.6 C35.9,2.3 30.4,0 24.3,0 L22.7,0 C10.5,0 0.5,9.7 0,21.8 L0,21.9 L0,22.6 L0,32.7 L0,33 C0,33 0,33 0,33.1 C0.1,38.5 2.1,43.8 5.6,47.8 C5.8,48 6.1,48.1 6.4,48.1 L6.7,48.1 L43.2,38.1 C43.5,38 43.8,37.7 43.9,37.4 C44.3,35.9 44.6,34.4 44.7,32.9 L45.5,22.7 C45.8,16.6 43.9,10.9 39.9,6.6 L39.9,6.6 Z M22.8,19.3 C23.2,19.2 23.6,19.2 24,19.2 C24.9,19.2 26,19.4 26.6,20.3 C27.2,21.1 27.1,22.4 26.5,24 L23.2,31.7 L2,32 L2,22.9 L22.8,19.3 L22.8,19.3 Z M43.4,22.5 L42.6,32.7 C42.5,33.9 42.3,35.1 42,36.3 L6.8,46 C4,42.6 2.3,38.4 2.1,34 L24,33.8 C24.4,33.8 24.8,33.6 24.9,33.2 L28.4,24.9 C29.3,22.7 29.3,20.8 28.3,19.4 C27.2,17.8 25.1,17.1 22.5,17.5 L2.1,20.9 C3.1,10.4 11.9,2.1 22.7,2.1 L24.3,2.1 C29.8,2.1 34.8,4.2 38.4,8.1 C42,11.9 43.8,17.1 43.4,22.5 L43.4,22.5 Z" id="Shape" sketch:type="MSShapeGroup"></path>
            <path d="M35,22 C32.8,22 31,23.8 31,26 C31,28.2 32.8,30 35,30 C37.2,30 39,28.2 39,26 C39,23.8 37.2,22 35,22 L35,22 Z M35,28 C33.9,28 33,27.1 33,26 C33,24.9 33.9,24 35,24 C36.1,24 37,24.9 37,26 C37,27.1 36.1,28 35,28 L35,28 Z" id="Shape" sketch:type="MSShapeGroup"></path>
            <path d="M21,26 C21.3,26 21.5,25.9 21.7,25.7 L24.7,22.7 C25.1,22.3 25.1,21.7 24.7,21.3 C24.3,20.9 23.7,20.9 23.3,21.3 L20.3,24.3 C19.9,24.7 19.9,25.3 20.3,25.7 C20.5,25.9 20.7,26 21,26 L21,26 Z" id="Shape" sketch:type="MSShapeGroup"></path>
            <path d="M41.6,39.5 L9.8,48.2 C9.3,48.3 9,48.9 9.1,49.4 C9.2,49.8 9.6,50.1 10.1,50.1 L10.4,50.1 L42.2,41.4 C42.7,41.3 43,40.7 42.9,40.2 C42.8,39.7 42.1,39.3 41.6,39.5 L41.6,39.5 Z" id="Shape" sketch:type="MSShapeGroup"></path>
        </g>
    </g>
</svg>