<?xml version="1.0" encoding="UTF-8" standalone="no"?>
<svg width="109px" height="109px" viewBox="0 0 109 109" version="1.1" xmlns="http://www.w3.org/2000/svg" xmlns:xlink="http://www.w3.org/1999/xlink" xmlns:sketch="http://www.bohemiancoding.com/sketch/ns">
    <!-- Generator: Sketch Beta 3.3.2 (12041) - http://www.bohemiancoding.com/sketch -->
    <title>Slice 1</title>
    <desc>Created with Sketch Beta.</desc>
    <defs></defs>
    <g id="Page-1" stroke="none" stroke-width="1" fill="none" fill-rule="evenodd" sketch:type="MSPage">
        <g id="Group" sketch:type="MSLayerGroup">
            <rect id="Rectangle-1" sketch:type="MSShapeGroup" x="0" y="0" width="109" height="109"></rect>
            <path d="M65.773,53.54 L44.25,53.54 C43.829,54.849 43.394,56.129 42.943,57.374 L67.081,57.374 C66.635,56.129 66.199,54.849 65.773,53.54 L65.773,53.54 Z" id="Shape" fill="#FFFFFF" sketch:type="MSShapeGroup"></path>
            <path d="M67.795,59.29 L42.232,59.29 C41.72,60.619 41.196,61.899 40.653,63.125 L69.371,63.125 C68.832,61.899 68.303,60.619 67.795,59.29 L67.795,59.29 Z" id="Shape" fill="#FFFFFF" sketch:type="MSShapeGroup"></path>
            <path d="M62.523,42.037 L47.507,42.037 C47.184,43.325 46.853,44.601 46.511,45.872 L63.516,45.872 C63.174,44.602 62.842,43.325 62.523,42.037 L62.523,42.037 Z" id="Shape" fill="#FFFFFF" sketch:type="MSShapeGroup"></path>
            <path d="M64.045,47.789 L45.984,47.789 C45.62,49.084 45.242,50.364 44.856,51.622 L65.172,51.622 C64.783,50.363 64.408,49.083 64.045,47.789 L64.045,47.789 Z" id="Shape" fill="#FFFFFF" sketch:type="MSShapeGroup"></path>
            <path d="M55.014,4.656 C55.014,4.656 53.893,9.973 51.567,22.867 L58.46,22.867 C56.135,9.974 55.014,4.656 55.014,4.656 L55.014,4.656 Z" id="Shape" fill="#FFFFFF" sketch:type="MSShapeGroup"></path>
            <path d="M59.932,30.536 L50.098,30.536 C49.839,31.804 49.571,33.084 49.292,34.369 L60.737,34.369 C60.455,33.084 60.191,31.804 59.932,30.536 L59.932,30.536 Z" id="Shape" fill="#FFFFFF" sketch:type="MSShapeGroup"></path>
            <path d="M61.158,36.287 L48.867,36.287 C48.58,37.563 48.284,38.843 47.976,40.121 L62.051,40.121 C61.744,38.843 61.447,37.562 61.158,36.287 L61.158,36.287 Z" id="Shape" fill="#FFFFFF" sketch:type="MSShapeGroup"></path>
            <path d="M58.812,24.784 L51.214,24.784 C50.981,26.042 50.737,27.322 50.482,28.618 L59.544,28.618 C59.289,27.322 59.043,26.042 58.812,24.784 L58.812,24.784 Z" id="Shape" fill="#FFFFFF" sketch:type="MSShapeGroup"></path>
            <path d="M81.365,87.088 L73.541,87.088 L73.541,81.817 L69.756,81.817 L69.756,76.545 L73.541,76.545 L73.541,70.793 C72.391,69.141 71.295,67.199 70.258,65.041 L39.771,65.041 C38.73,67.199 37.637,69.141 36.486,70.793 L36.486,76.545 L40.27,76.545 L40.27,81.817 L36.486,81.817 L36.486,87.088 L29.657,87.088 L21.833,103.869 L88.194,103.869 L81.365,87.088 L81.365,87.088 Z M48.906,81.816 L43.846,81.816 L43.846,76.544 L48.906,76.544 L48.906,81.816 L48.906,81.816 Z M57.543,81.816 L52.482,81.816 L52.482,76.544 L57.543,76.544 L57.543,81.816 L57.543,81.816 Z M66.18,81.816 L61.121,81.816 L61.121,76.544 L66.18,76.544 L66.18,81.816 L66.18,81.816 Z" id="Shape" fill="#FFFFFF" sketch:type="MSShapeGroup"></path>
        </g>
    </g>
</svg>